<mxfile host="65bd71144e">
    <diagram id="gAsxZZ6G-xz8-POkUlct" name="Page-1">
        <mxGraphModel dx="1386" dy="792" grid="1" gridSize="10" guides="1" tooltips="1" connect="1" arrows="1" fold="1" page="1" pageScale="1" pageWidth="850" pageHeight="1100" math="0" shadow="0">
            <root>
                <mxCell id="0"/>
                <mxCell id="1" parent="0"/>
                <mxCell id="3" value="" style="rounded=1;whiteSpace=wrap;html=1;fillColor=#f5f5f5;gradientColor=#b3b3b3;strokeColor=#666666;fontFamily=Verdana;" vertex="1" parent="1">
                    <mxGeometry x="240" y="120" width="290" height="350" as="geometry"/>
                </mxCell>
                <mxCell id="4" value="&lt;h1&gt;Heading&lt;/h1&gt;&lt;p&gt;Lorem ipsum dolor sit amet, consectetur adipisicing elit, sed do eiusmod tempor incididunt ut labore et dolore magna aliqua.&lt;/p&gt;" style="text;html=1;strokeColor=none;fillColor=none;spacing=5;spacingTop=-20;whiteSpace=wrap;overflow=hidden;rounded=0;fontFamily=Verdana;fontColor=#e51f1f;" vertex="1" parent="1">
                    <mxGeometry x="240" y="130" width="290" height="110" as="geometry"/>
                </mxCell>
                <mxCell id="5" value="" style="shape=image;imageAspect=0;aspect=fixed;verticalLabelPosition=bottom;verticalAlign=top;fontFamily=Verdana;fontColor=#e51f1f;image=data:image/png,/9j/4AAQSkZJRgABAQEAYABgAAD/4RCyRXhpZgAATU0AKgAAAAgAAodpAAQAAAABAAAIMuocAAcAAAgMAAAAJgAAAAAc6gAAAAgAAAAAAAAAAAAAAAAAAAAAAAAAAAAAAAAAAAAAAAAAAAAAAAAAAAAAAAAAAAAAAAAAAAAAAAAAAAAAAAAAAAAAAAAAAAAAAAAAAAAAAAAAAAAAAAAAAAAAAAAAAAAAAAAAAAAAAAAAAAAAAAAAAAAAAAAAAAAAAAAAAAAAAAAAAAAAAAAAAAAAAAAAAAAAAAAAAAAAAAAAAAAAAAAAAAAAAAAAAAAAAAAAAAAAAAAAAAAAAAAAAAAAAAAAAAAAAAAAAAAAAAAAAAAAAAAAAAAAAAAAAAAAAAAAAAAAAAAAAAAAAAAAAAAAAAAAAAAAAAAAAAAAAAAAAAAAAAAAAAAAAAAAAAAAAAAAAAAAAAAAAAAAAAAAAAAAAAAAAAAAAAAAAAAAAAAAAAAAAAAAAAAAAAAAAAAAAAAAAAAAAAAAAAAAAAAAAAAAAAAAAAAAAAAAAAAAAAAAAAAAAAAAAAAAAAAAAAAAAAAAAAAAAAAAAAAAAAAAAAAAAAAAAAAAAAAAAAAAAAAAAAAAAAAAAAAAAAAAAAAAAAAAAAAAAAAAAAAAAAAAAAAAAAAAAAAAAAAAAAAAAAAAAAAAAAAAAAAAAAAAAAAAAAAAAAAAAAAAAAAAAAAAAAAAAAAAAAAAAAAAAAAAAAAAAAAAAAAAAAAAAAAAAAAAAAAAAAAAAAAAAAAAAAAAAAAAAAAAAAAAAAAAAAAAAAAAAAAAAAAAAAAAAAAAAAAAAAAAAAAAAAAAAAAAAAAAAAAAAAAAAAAAAAAAAAAAAAAAAAAAAAAAAAAAAAAAAAAAAAAAAAAAAAAAAAAAAAAAAAAAAAAAAAAAAAAAAAAAAAAAAAAAAAAAAAAAAAAAAAAAAAAAAAAAAAAAAAAAAAAAAAAAAAAAAAAAAAAAAAAAAAAAAAAAAAAAAAAAAAAAAAAAAAAAAAAAAAAAAAAAAAAAAAAAAAAAAAAAAAAAAAAAAAAAAAAAAAAAAAAAAAAAAAAAAAAAAAAAAAAAAAAAAAAAAAAAAAAAAAAAAAAAAAAAAAAAAAAAAAAAAAAAAAAAAAAAAAAAAAAAAAAAAAAAAAAAAAAAAAAAAAAAAAAAAAAAAAAAAAAAAAAAAAAAAAAAAAAAAAAAAAAAAAAAAAAAAAAAAAAAAAAAAAAAAAAAAAAAAAAAAAAAAAAAAAAAAAAAAAAAAAAAAAAAAAAAAAAAAAAAAAAAAAAAAAAAAAAAAAAAAAAAAAAAAAAAAAAAAAAAAAAAAAAAAAAAAAAAAAAAAAAAAAAAAAAAAAAAAAAAAAAAAAAAAAAAAAAAAAAAAAAAAAAAAAAAAAAAAAAAAAAAAAAAAAAAAAAAAAAAAAAAAAAAAAAAAAAAAAAAAAAAAAAAAAAAAAAAAAAAAAAAAAAAAAAAAAAAAAAAAAAAAAAAAAAAAAAAAAAAAAAAAAAAAAAAAAAAAAAAAAAAAAAAAAAAAAAAAAAAAAAAAAAAAAAAAAAAAAAAAAAAAAAAAAAAAAAAAAAAAAAAAAAAAAAAAAAAAAAAAAAAAAAAAAAAAAAAAAAAAAAAAAAAAAAAAAAAAAAAAAAAAAAAAAAAAAAAAAAAAAAAAAAAAAAAAAAAAAAAAAAAAAAAAAAAAAAAAAAAAAAAAAAAAAAAAAAAAAAAAAAAAAAAAAAAAAAAAAAAAAAAAAAAAAAAAAAAAAAAAAAAAAAAAAAAAAAAAAAAAAAAAAAAAAAAAAAAAAAAAAAAAAAAAAAAAAAAAAAAAAAAAAAAAAAAAAAAAAAAAAAAAAAAAAAAAAAAAAAAAAAAAAAAAAAAAAAAAAAAAAAAAAAAAAAAAAAAAAAAAAAAAAAAAAAAAAAAAAAAAAAAAAAAAAAAAAAAAAAAAAAAAAAAAAAAAAAAAAAAAAAAAAAAAAAAAAAAAAAAAAAAAAAAAAAAAAAAAAAAAAAAAAAAAAAAAAAAAAAAAAAAAAAAAAAAAAAAAAAAAAAAAAAAAAAAAAAAAAAAAAAAAAAAAAAAAAAAAAAAAAAAAAAAAAAAAAAAAAAAAAAAAAAAAAAAAAAAAAAAAAAAAAAAAAAAAAAAAAAAAAAAAAAAAAAAAAAAAAAAAAAAAAAAAAAAAAAAAAAAAAAAAAAAAAAAAAAAAAAAAAAAAAAAAAAAAAAAAAAAAAAAAAAAAAAAAAAAAAAAAAAAAAAAAAAAAAAAAAAAAAAAAAAAAAAAAAAAAAAAAAAAAAAAAAAAAAAAAAAAAAAAAAAAAAAAAAAAAAAAAAAAAAAAAAAAAAAAAAAAAAAAAAAAAAAAAAAAAAAAAAAAAAAAAAAAAAAAAAAAAAAAAAAAAAAAAAAAAAAAAAAAAAAAAAAAAAAAAAAAAAAAAAAAAAAAAAAAAAAAAAAAAAAAAAAAAAAAAAAAAAAAAAAAAAAAAAAAAAAAAAAAAAAAAAAAAAAAAAAAAAAAAAAAAAAAAAAAAAAAAAAAAAAAAAAAAAAAAAAAAAAAAAAAAAAAAAAAAAAAAAAAAAAAAAAAAAAAAAAAAAAAAAAAAAAAAAAAAAAAAAAAAAAAAAAAAAAAAAAAAAAAAAAAAAAAAAAAAAAAAAAAAAAAAAAAAAAAAAAAAAAAAAAAAAAAAAAAAAAAAAAAAAAAAAAAAAAAAAAAAAAAAAAAAAAAAAAAAAAAAAAAAAAAAAAAAAAAAAAAAAAAAAAAAAAAAAAAAAAAAAAAAAAAAAAAAAAAAAAAAAAAAAAAAAAAAAAAAAAAAAAAAAAAAAAAAAAAAAAFkAMAAgAAABQAABCAkAQAAgAAABQAABCUkpEAAgAAAAMzMQAAkpIAAgAAAAMzMQAA6hwABwAACAwAAAh0AAAAABzqAAAACAAAAAAAAAAAAAAAAAAAAAAAAAAAAAAAAAAAAAAAAAAAAAAAAAAAAAAAAAAAAAAAAAAAAAAAAAAAAAAAAAAAAAAAAAAAAAAAAAAAAAAAAAAAAAAAAAAAAAAAAAAAAAAAAAAAAAAAAAAAAAAAAAAAAAAAAAAAAAAAAAAAAAAAAAAAAAAAAAAAAAAAAAAAAAAAAAAAAAAAAAAAAAAAAAAAAAAAAAAAAAAAAAAAAAAAAAAAAAAAAAAAAAAAAAAAAAAAAAAAAAAAAAAAAAAAAAAAAAAAAAAAAAAAAAAAAAAAAAAAAAAAAAAAAAAAAAAAAAAAAAAAAAAAAAAAAAAAAAAAAAAAAAAAAAAAAAAAAAAAAAAAAAAAAAAAAAAAAAAAAAAAAAAAAAAAAAAAAAAAAAAAAAAAAAAAAAAAAAAAAAAAAAAAAAAAAAAAAAAAAAAAAAAAAAAAAAAAAAAAAAAAAAAAAAAAAAAAAAAAAAAAAAAAAAAAAAAAAAAAAAAAAAAAAAAAAAAAAAAAAAAAAAAAAAAAAAAAAAAAAAAAAAAAAAAAAAAAAAAAAAAAAAAAAAAAAAAAAAAAAAAAAAAAAAAAAAAAAAAAAAAAAAAAAAAAAAAAAAAAAAAAAAAAAAAAAAAAAAAAAAAAAAAAAAAAAAAAAAAAAAAAAAAAAAAAAAAAAAAAAAAAAAAAAAAAAAAAAAAAAAAAAAAAAAAAAAAAAAAAAAAAAAAAAAAAAAAAAAAAAAAAAAAAAAAAAAAAAAAAAAAAAAAAAAAAAAAAAAAAAAAAAAAAAAAAAAAAAAAAAAAAAAAAAAAAAAAAAAAAAAAAAAAAAAAAAAAAAAAAAAAAAAAAAAAAAAAAAAAAAAAAAAAAAAAAAAAAAAAAAAAAAAAAAAAAAAAAAAAAAAAAAAAAAAAAAAAAAAAAAAAAAAAAAAAAAAAAAAAAAAAAAAAAAAAAAAAAAAAAAAAAAAAAAAAAAAAAAAAAAAAAAAAAAAAAAAAAAAAAAAAAAAAAAAAAAAAAAAAAAAAAAAAAAAAAAAAAAAAAAAAAAAAAAAAAAAAAAAAAAAAAAAAAAAAAAAAAAAAAAAAAAAAAAAAAAAAAAAAAAAAAAAAAAAAAAAAAAAAAAAAAAAAAAAAAAAAAAAAAAAAAAAAAAAAAAAAAAAAAAAAAAAAAAAAAAAAAAAAAAAAAAAAAAAAAAAAAAAAAAAAAAAAAAAAAAAAAAAAAAAAAAAAAAAAAAAAAAAAAAAAAAAAAAAAAAAAAAAAAAAAAAAAAAAAAAAAAAAAAAAAAAAAAAAAAAAAAAAAAAAAAAAAAAAAAAAAAAAAAAAAAAAAAAAAAAAAAAAAAAAAAAAAAAAAAAAAAAAAAAAAAAAAAAAAAAAAAAAAAAAAAAAAAAAAAAAAAAAAAAAAAAAAAAAAAAAAAAAAAAAAAAAAAAAAAAAAAAAAAAAAAAAAAAAAAAAAAAAAAAAAAAAAAAAAAAAAAAAAAAAAAAAAAAAAAAAAAAAAAAAAAAAAAAAAAAAAAAAAAAAAAAAAAAAAAAAAAAAAAAAAAAAAAAAAAAAAAAAAAAAAAAAAAAAAAAAAAAAAAAAAAAAAAAAAAAAAAAAAAAAAAAAAAAAAAAAAAAAAAAAAAAAAAAAAAAAAAAAAAAAAAAAAAAAAAAAAAAAAAAAAAAAAAAAAAAAAAAAAAAAAAAAAAAAAAAAAAAAAAAAAAAAAAAAAAAAAAAAAAAAAAAAAAAAAAAAAAAAAAAAAAAAAAAAAAAAAAAAAAAAAAAAAAAAAAAAAAAAAAAAAAAAAAAAAAAAAAAAAAAAAAAAAAAAAAAAAAAAAAAAAAAAAAAAAAAAAAAAAAAAAAAAAAAAAAAAAAAAAAAAAAAAAAAAAAAAAAAAAAAAAAAAAAAAAAAAAAAAAAAAAAAAAAAAAAAAAAAAAAAAAAAAAAAAAAAAAAAAAAAAAAAAAAAAAAAAAAAAAAAAAAAAAAAAAAAAAAAAAAAAAAAAAAAAAAAAAAAAAAAAAAAAAAAAAAAAAAAAAAAAAAAAAAAAAAAAAAAAAAAAAAAAAAAAAAAAAAAAAAAAAAAAAAAAAAAAAAAAAAAAAAAAAAAAAAAAAAAAAAAAAAAAAAAAAAAAAAAAAAAAAAAAAAAAAAAAAAAAAAAAAAAAAAAAAAAAAAAAAAAAAAAAAAAAAAAAAAAAAAAAAAAAAAAAAAAAAAAAAAAAAAAAAAAAAAAAAAAAAAAAAAAAAAAAAAAAAAAAAAAAAAAAAAAAAAAAAAAAAAAAAAAAAAAAAAAAAAAAAAAAAAAAAAAAAAAAAAAAAAAAAAAAAAAAAAAAAAAAAAAAAAAAAAAAAAAAAAAAAAAAAAAAAAAAAAAAAAAAAAAAAAAAAAAAAAAAAAAAAAAAAAAAAAAAAAAAAAAAAAAAAAAAAAAAAAAAAAAAAAAAAAAAAAAAAAAAAAAAAAAAAAAAAAAAAAAAAAAAAAAAAAAAAAAAAAAAAAAAAAAAAAAAAAAAAAAAAAAAAAAAAAAAAAAAAAAAAAAAAAAAAAAAAAAAAAAAAAAAAAAAAAAAAAAAAAAAAAAAAAAAAAAAAAAAAAAAAAAAAAAAAAAAAAAAAAAAAAAAAAAAAAAAAAAAAAAAAAAAAAAAAAAAAAAAAAAAAAAAAAAAAAAAAAAAAAAAAAAAAAAAAAAAAAAAAAAAAAAAAAAAAAAAAAAAAAAAAAAAAAAAAAAAAAAAAAAAAAAAAAAAAAAAAAAAAAAAAAAAAAMjAyMzowNzoyMyAxMTo1OToyNQAyMDIzOjA3OjIzIDExOjU5OjI1AAAA/+EJoGh0dHA6Ly9ucy5hZG9iZS5jb20veGFwLzEuMC8APD94cGFja2V0IGJlZ2luPSfvu78nIGlkPSdXNU0wTXBDZWhpSHpyZVN6TlRjemtjOWQnPz4NCjx4OnhtcG1ldGEgeG1sbnM6eD0iYWRvYmU6bnM6bWV0YS8iPjxyZGY6UkRGIHhtbG5zOnJkZj0iaHR0cDovL3d3dy53My5vcmcvMTk5OS8wMi8yMi1yZGYtc3ludGF4LW5zIyI+PHJkZjpEZXNjcmlwdGlvbiByZGY6YWJvdXQ9InV1aWQ6ZmFmNWJkZDUtYmEzZC0xMWRhLWFkMzEtZDMzZDc1MTgyZjFiIiB4bWxuczp4bXA9Imh0dHA6Ly9ucy5hZG9iZS5jb20veGFwLzEuMC8iPjx4bXA6Q3JlYXRlRGF0ZT4yMDIzLTA3LTIzVDExOjU5OjI1LjMwNjwveG1wOkNyZWF0ZURhdGU+PC9yZGY6RGVzY3JpcHRpb24+PC9yZGY6UkRGPjwveDp4bXBtZXRhPg0KICAgICAgICAgICAgICAgICAgICAgICAgICAgICAgICAgICAgICAgICAgICAgICAgICAgICAgICAgICAgICAgICAgICAgICAgICAgICAgICAgICAgICAgICAgICAgICAgICAgIAogICAgICAgICAgICAgICAgICAgICAgICAgICAgICAgICAgICAgICAgICAgICAgICAgICAgICAgICAgICAgICAgICAgICAgICAgICAgICAgICAgICAgICAgICAgICAgICAgICAgCiAgICAgICAgICAgICAgICAgICAgICAgICAgICAgICAgICAgICAgICAgICAgICAgICAgICAgICAgICAgICAgICAgICAgICAgICAgICAgICAgICAgICAgICAgICAgICAgICAgICAKICAgICAgICAgICAgICAgICAgICAgICAgICAgICAgICAgICAgICAgICAgICAgICAgICAgICAgICAgICAgICAgICAgICAgICAgICAgICAgICAgICAgICAgICAgICAgICAgICAgIAogICAgICAgICAgICAgICAgICAgICAgICAgICAgICAgICAgICAgICAgICAgICAgICAgICAgICAgICAgICAgICAgICAgICAgICAgICAgICAgICAgICAgICAgICAgICAgICAgICAgCiAgICAgICAgICAgICAgICAgICAgICAgICAgICAgICAgICAgICAgICAgICAgICAgICAgICAgICAgICAgICAgICAgICAgICAgICAgICAgICAgICAgICAgICAgICAgICAgICAgICAKICAgICAgICAgICAgICAgICAgICAgICAgICAgICAgICAgICAgICAgICAgICAgICAgICAgICAgICAgICAgICAgICAgICAgICAgICAgICAgICAgICAgICAgICAgICAgICAgICAgIAogICAgICAgICAgICAgICAgICAgICAgICAgICAgICAgICAgICAgICAgICAgICAgICAgICAgICAgICAgICAgICAgICAgICAgICAgICAgICAgICAgICAgICAgICAgICAgICAgICAgCiAgICAgICAgICAgICAgICAgICAgICAgICAgICAgICAgICAgICAgICAgICAgICAgICAgICAgICAgICAgICAgICAgICAgICAgICAgICAgICAgICAgICAgICAgICAgICAgICAgICAKICAgICAgICAgICAgICAgICAgICAgICAgICAgICAgICAgICAgICAgICAgICAgICAgICAgICAgICAgICAgICAgICAgICAgICAgICAgICAgICAgICAgICAgICAgICAgICAgICAgIAogICAgICAgICAgICAgICAgICAgICAgICAgICAgICAgICAgICAgICAgICAgICAgICAgICAgICAgICAgICAgICAgICAgICAgICAgICAgICAgICAgICAgICAgICAgICAgICAgICAgCiAgICAgICAgICAgICAgICAgICAgICAgICAgICAgICAgICAgICAgICAgICAgICAgICAgICAgICAgICAgICAgICAgICAgICAgICAgICAgICAgICAgICAgICAgICAgICAgICAgICAKICAgICAgICAgICAgICAgICAgICAgICAgICAgICAgICAgICAgICAgICAgICAgICAgICAgICAgICAgICAgICAgICAgICAgICAgICAgICAgICAgICAgICAgICAgICAgICAgICAgIAogICAgICAgICAgICAgICAgICAgICAgICAgICAgICAgICAgICAgICAgICAgICAgICAgICAgICAgICAgICAgICAgICAgICAgICAgICAgICAgICAgICAgICAgICAgICAgICAgICAgCiAgICAgICAgICAgICAgICAgICAgICAgICAgICAgICAgICAgICAgICAgICAgICAgICAgICAgICAgICAgICAgICAgICAgICAgICAgICAgICAgICAgICAgICAgICAgICAgICAgICAKICAgICAgICAgICAgICAgICAgICAgICAgICAgICAgICAgICAgICAgICAgICAgICAgICAgICAgICAgICAgICAgICAgICAgICAgICAgICAgICAgICAgICAgICAgICAgICAgICAgIAogICAgICAgICAgICAgICAgICAgICAgICAgICAgICAgICAgICAgICAgICAgICAgICAgICAgICAgICAgICAgICAgICAgICAgICAgICAgICAgICAgICAgICAgICAgICAgICAgICAgCiAgICAgICAgICAgICAgICAgICAgICAgICAgICAgICAgICAgICAgICAgICAgICAgICAgICAgICAgICAgICAgICAgICAgICAgICAgICAgICAgICAgICAgICAgICAgICAgICAgICAKICAgICAgICAgICAgICAgICAgICAgICAgICAgICAgICAgICAgICAgICAgICAgICAgICAgICAgICAgICAgICAgICAgICAgICAgICAgICAgICAgICAgICAgICAgICAgICAgICAgIAogICAgICAgICAgICAgICAgICAgICAgICAgICAgICAgICAgICAgICAgICAgICAgICAgICAgICAgICAgICAgICAgICAgICAgICAgICAgICAgICAgICAgICAgICAgICAgICAgICAgCiAgICAgICAgICAgICAgICAgICAgICAgICAgICA8P3hwYWNrZXQgZW5kPSd3Jz8+/9sAQwAHBQUGBQQHBgUGCAcHCAoRCwoJCQoVDxAMERgVGhkYFRgXGx4nIRsdJR0XGCIuIiUoKSssKxogLzMvKjInKisq/9sAQwEHCAgKCQoUCwsUKhwYHCoqKioqKioqKioqKioqKioqKioqKioqKioqKioqKioqKioqKioqKioqKioqKioqKioq/8AAEQgB0gN3AwEiAAIRAQMRAf/EAB8AAAEFAQEBAQEBAAAAAAAAAAABAgMEBQYHCAkKC//EALUQAAIBAwMCBAMFBQQEAAABfQECAwAEEQUSITFBBhNRYQcicRQygZGhCCNCscEVUtHwJDNicoIJChYXGBkaJSYnKCkqNDU2Nzg5OkNERUZHSElKU1RVVldYWVpjZGVmZ2hpanN0dXZ3eHl6g4SFhoeIiYqSk5SVlpeYmZqio6Slpqeoqaqys7S1tre4ubrCw8TFxsfIycrS09TV1tfY2drh4uPk5ebn6Onq8fLz9PX29/j5+v/EAB8BAAMBAQEBAQEBAQEAAAAAAAABAgMEBQYHCAkKC//EALURAAIBAgQEAwQHBQQEAAECdwABAgMRBAUhMQYSQVEHYXETIjKBCBRCkaGxwQkjM1LwFWJy0QoWJDThJfEXGBkaJicoKSo1Njc4OTpDREVGR0hJSlNUVVZXWFlaY2RlZmdoaWpzdHV2d3h5eoKDhIWGh4iJipKTlJWWl5iZmqKjpKWmp6ipqrKztLW2t7i5usLDxMXGx8jJytLT1NXW19jZ2uLj5OXm5+jp6vLz9PX29/j5+v/aAAwDAQACEQMRAD8A8SoooqhBUbSgdOaSV8DAqGlcCXzvb9aPPPp+tRVo6PoGreILsW2i6fcXsx52wxliB68UDKfnn0/Wjzz6frXf/wDCifiD5Hm/2KNuM4+0R7v++c5rjNY0DVvD92bbWtPuLKYc7ZoyuR680AU/PPp+tHnn0/WoqKAJfPPp+tHnn0/WoqKAJfPPp+tHnn0/WoqKAJfPPp+tHnn0/WoqKAJfPPp+tHnn0/WoqKAJfPPp+tHnn0/WoqKAJfPPp+tHnn0/WoqKAJfPPp+tHnn0/WoqKAJfPPp+tHnn0/WoqKAJfPPp+tHnn0/WoqKAJfPPp+tHnn0/WoqKAJfPPp+tHnn0/WoqKAJfPPp+tHnn0/WoqKAJfPPp+tHnn0/WoqKAJfPPp+tHnn0/WoqKAJfPPp+tHnn0/WoqKAJfPPp+tHnn0/WoqKAJfPPp+tHnn0/WoqKAJfPPp+tHnn0/WoqKAJfPPp+tHnn0/WoqKAJfPPp+tHnn0/WoqKAJfPPp+tHnn0/WoqKAJfPPp+tHnn0/WoqKAJfPPp+tHnn0/WoqKAJfPPp+tHnn0/WoqKAJfPPp+tHnn0/WoqKAJfPPp+tHnn0/WoqKAJfPPp+tHnn0/WoqKAJfPPp+tHnn0/WoqKAJfPPp+tHnn0/WoqKAJfPPp+tHnn0/WoqKAJfPPp+tHnn0/WoqKAJfPPp+tHnn0/WoqKAJfPPp+tHnn0/WoqKAJfPPp+tHnn0/WoqKAJfPPp+tHnn0/WoqKAJfPPp+tHnn0/WoqKAJfPPp+tHnn0/WoqKAJfPPp+tHnn0/WoqKAJfPPp+tHnn0/WoqKAJfPPp+tHnn0/WoqKAJfPPp+tHnn0/WoqKAJfPPp+tHnn0/WoqKAJfPPp+tHnn0/WoqKAJfPPp+tHnn0/WoqKAJfPPp+tHnn0/WoqKAJfPPp+tHnn0/WoqKAJfPPp+tHnn0/WoqKAJfPPp+tHnn0/WoqKAJfPPp+tHnn0/WoqKANa105rq0SZZApbPyke+OtQz2sts371eD0YdDWto6l9OgUYySQMnA+8e5ra1HSreKyUx3kFwSMSosgJB9R6j/APX9C4HFUVJPCbe4eI87TwfUUUxEdFFFAFeX7/4Uyny/f/CmVIzo/Ang+68b+LLXR7Q7FkO6aUjIjQck/l+Z4r6z0Kfwf4EJ8NWG2wa3CeZJImPNYqDln7nB74AzgV5V+y5YwvceIL8qPPiWKFW/2WLE/qgr1vTbW3vPHfiiG7gjnjZbXKSKGB/d+hqZN6WO3CU6U1UlVvaKvp/iS8+51H2u3+y/afPi8jbu83eNuPXPSuR12bwf47x4av8AZftcB/LkjTPlMFJyr9jgdsg4wav/APCA+H/tHmfZH2dfI81vLz64z/8AWqtqVrb2fjzwxDaQRwRqt1hI1Cgfu/QUm5I3pUcJNyjFybtJrRK1ot+d9vI+RvHfg+68EeLLrR7s71jO6GUDAkQ8g/l+R4rnK+gf2o7GFLjw/fhR58qyws3+ypUj9XNfP1WeWFFeuLpv/CR/BPRNGtozJqcMU1/ZqBzIFuGSVf8Avlw2P9mtLxHoGm6pomh6Ks7R6Z4f+3Lcy2ygyS+RHE0uwHgszlv502rN+X5LRv5MI2bS/q+6XzPEaK9E0bwNoPimyg1PR5tSsbOG5kivobpknkKpE0uYiqqCSqEYI4JHUdbPgez0HUNcdPDMepwXVxYX8Bi1CSN4yDAdrCRVUA8jKkHHr6lt15XBW07N2/G34HmVFemSeAfDmmXOpwarLq0/9k6ZHezXFo8YS6Z2UDysof3eGxuJPOTgYwbGiaFptt4Y1LWtEa7S11PQLxGt7xleSKSOWINh1VQyncMHaKLb27N/df8AyBa/16fozyuiu+n8C6ZF4x8UaUbi8W10eya4il+VmyDH97C8j5zwMHgc03xl4O0XSdDbUfDk1zewx3Qhe5F3FMgBU43oFR4XyPukMPfNTdWT7q/3uwLV2ODooopgFFFFABRRRQAUUUUAFFFFABRRRQAUUUUAFFFFABRRRQAUUUUAFFFFABRRRQAUUUUAFFFFABRRRQAUUUUAFFFFABRRRQAUUUUAFFFFABRRRQAUUUUAFFFFABRRRQAUUUUAFFFFABRRRQAUUUUAFFFFABRRRQAUUUUAFFFFABRRRQAUoBZgFBJPQCkrTRRp9ktwgEksowrjlU/+vQBmUUpJZiScknJNJQAUUUUAFOaKRERnRlWQZQkYDDOMj15FNrufCs6+LNPHhjVoHkEKF7S9jXLW2Ozf7Pb9PQgA4aip722+x301t5sc3lOU8yJsq2D1B9KgoAKKKKACr9romo3um3GoWto8lrbf62UYwvGT7njniqFdZoNpqMvgjWZ7XWktLWPPm2hAzL8ozz1GRxx1xigDk6KKKACiiigB0cbzSLHEjO7HCqoySfQCm9Knsr240+9iu7OVop4W3I69jXodpoOneLbRPE1xZz2xTc13aQJxeMozmPnjJ6/j35pgebtFIiozoyrINyEjAYZxkevINNrV1/XrjXb5ZJUWC3hXy7e2jGFhT0H9TWVSAKKKKAOt8P2Ul5paeWVG3Odx9WNan9jXH9+L8z/hUPg3/kFn/P8AE1dFQB55rUZi1IocZVcHHqCRRT/EP/IZk/H/ANCNFUIzaKKKAK8v3/wplPl+/wDhTKkZ69+zv4sg0LxtLpd9KI4NUjEaMxwBKDlc/XkfU19ALoU994k8Si4Nxa294tt5NxE20kqnO0+xHNfEaO0civGxVlOQR2Ne+eAf2jPsVjFp/jaCa58sbUvoAC5Hbep6n3zn6mk1c6KOInQ5uTqrfin+h7D/AMI14i8nyP8AhLZvJxjP2VfMx/v5zn3pDoU9j4k8Ni3NxdW9mlz51xK24gsvGT7k8Vk/8Ly+H3keZ/bo3Yz5fkSbv/QcfrXmvj79oz7bYy6f4Jgmt/MG176cAOB32KOh985+hpcqN/r9bW9tnskt01fRLuc/+0R4sh13xtFpdjKJLfS4zG7Kcgyk5bH04H1FeQ053aSRnkYszHJJ7mm1RwG1p/i/XdLl02TT79oH0tZFsysaHyxISXHI+bJJ65ptp4s1yx+yfZNQkiNlPJcQMFXKvIAHJOMtkAZByPzrHoouB0Fx458RXFzZT/2h5DWMhlt1tYI4Ejc9W2RqFJPfIORkd6dN498RzqFN9HFGElTyoLSGKM+apWQlEQAsQSN2M89a52ijyDrc7Tw/8RdR0fQr2zluZXlWyFrpzeRG4iBlV2VywyyYDDB3DnGADWTc+Ndfu94mvgI3tGsvKjt4441hJBKKiqFXJA5UA8dawaKHrv8A1/VwWi0/rb/I6h/iR4qe1mgOqBRPEsUsiWsKyyKowu6QJvJGOCTketVNX8Z67rtm9rqd4jwySiaURW0URmcDAZyigucd2zWFRQ9dwWmwUUUUAFFFFABRRRQAUUUUAFFFFABRRRQAUUUUAFFFFABRRRQAUUUUAFFFFABRRRQAUUUUAFFFFABRRRQAUUUUAFFFFABRRRQAUUUUAFFFFABRRRQAUUUUAFFFFABRRRQAUUUUAFFFFABRRRQAUUUUAFFFFABRRRQAUUUUAFFFFABRRRQAVatLzyA0cq+ZC/3kP8xVWigBTgsdowM8CkoooAKKKKACui/4ShbTwqmkaNbG0eYE31xuy8x9Aey47fh6552igAooooAKKKKACt3S/wDhHP8AhGtQ/tXzv7V5+ybN23px0465znt0rCooAKKKKACiiigCzp0lpFqUEmpQvPaq4MscbbWYemf8/h1rU1HxbqN7rMF9bP8AY1tOLSGHhYF9AO/HX1+nFYVFAGv4h1a01q6ivLey+yXMiZu9h+R5M/eUds9/8k5FFFABRRRQB3fg3/kFn/P8TV0Vc74N/wCQWf8AP8TV0VAHn/iH/kMyfj/6EaKPEP8AyGZPx/8AQjRVIRm0UUUAV5fv/hTK39KbFq/++f5Cr2+obLUbo5Kiut8ylEmOlK4+U5GiuwD0ofmi4chx1FdpvpQwouHKcVRXbbhSUXDlOKortqKLj5DiaK7aii4chxNFdqTSA4ouHIcXRXa0tFw5DiaK7aii4chxNFdoVppWjmDkONorsCppCM0cwchyFFddim4o5g9mcnRXWYFFLmH7M5OiuroNHMHszlKK6o/dqJz3p8wnCxzVFb71Cxp3J5TGorYpKZJkUVr0UAZFFa9GaAMiitlaevWlcpRuYdFdABmnhc0uYr2ZzlFdKFp2ylzD9mcxRXUBMUmyjmH7LzOYorpivemkUcwvZnN0V0WMGpY+tHMHs/M5iiuxiFWkWp9p5FqjfqcJRXoIXimsgNL2vkP2HmcBRXcNH6VGY80e18g9h5nF0V2Ji5pRFR7TyF7F9zjaK7ZYqlEdHtfIfsPM4Siu98v5ajdOKPa+Q/q/mcNRXWTL1qjKKpTuZSp26mDRWuaK0MjIorbTk81dt4nf7iM2PQZqebWxajc5eiu4it5f+eT/APfJqbyJf+eT/wDfJpc0uxfsl3OBoru2tpSP9U//AHyaryW03OIpP++TTvLsJ00upxlFdTJaz5/1Mn/fBqI2s4/5Yyf98Gn73YnlXc5uiuj+zT/88ZP++DTTaz/88ZP++DT17E2Rz1FbrxvHgSIyZ6bhimUrjsYtFbVLmi4WMSitvNFFwsYlFblLii4WMKit3FGKLhYwqK3cZpKLhYw6K3P4aUdKLhymFRW9SdaLhymFRW5SUXCxiUVtmkouFjFora7UUXCxi0VtUhouKxjUVsUUXCxj0VsUCi4WOj8G/wDILP8An+Jq6KsPwz/x6yfh/M1uUxHn/iH/AJDMn4/+hGijxD/yGZPx/wDQjRVIRm0UUUAaOmnFu3++f5Crm6qWnf8AHu3++f5CrdZPc1jsLmlDYptJQUdBb+ENcu9Nt762szNDckCLYwLNlio4+oNSDwdrYfH2dfL2lzOJVMYAOD82cZzxWjpfxM1HSNDsdPtLK3JsiNkkpZgRuLH5egJ3EZ64qNfHu3TDpCaPbLo7Bt1n5r5LFg27fnPYDHpQLUrJ4K11lkItVDRzCFozIAwc9Bj36j1FA8HaxtuDtgP2UAzATr8nOOefXinz+Oby6mu5Lm2jZrq8iuj5bsmzy12qoIOQMY5znipNQ8eXOoT38jWMEf223it3IYlsRuGDE/xMSME0BqRSeC9ejv7OzazzNeFxCFcEEoMsCe2BUX/CLawNNnv/ALL+4g3+Z8w3KEYKxx1wCRmteX4oX8sjXJsLb7asbwwXDfP5UblSV2sNp+6Rk9mNUta8fajq9g1pHGlnFK7vcCE/67eQSD6DIzigNSO18H6vdW9vPBHCyXKs0Z85eQoy35Ac06Hwbrlx9k+z2nmreyNFAyMCGZc55/Ck0bxrcaOunCO1SQWCzKp3lS3mjB5HQjtitey+KuoafFHFbWURSN96mWRnbO/eTuPOT0PsaA1MoeCtee3jmSzykgyMOMgfNyR2+6fyqla6FqN5pkuowQZtIZRFJKzABWOP8R+day/EbUhdWTGJRbWqFGtlYhZclzlj1/jNNHjp4tGbSLTTLeHT3jlWSInezs5zv3kbgRheBx8ooHqV5/Bmr2yztNHCot0V5SZl+QN93P17Vg11CePZxJqRazGNQgghcRzMhURLtGCPXuK5XIzxxQUO+tKDTM5paAHUtNGKXNIBaQ80tFIY0ikIp9JikBGVppGRU2Kbt4oGRbaMVJtppWgdhlJTiPWkIoFYYx7VC/pUrVC3WmiWQtUZ61I9RmqMxpooNFUiGFFFFMQUUUUmA4Ve03T7jU7owWgUuEaQ7jgBVGSfyqiK1dB1dtE1FrpIzIWhkhIV9pAdSpIODg81Jotid/Dupw3sVrJb4llV3UZGAq53EnsBtP5U/wDsC+SPzXRFhIG2YuNj56AHueK0Ljxk93dR3MligkWKW3ZVk+R4pN24EYzu+Y/MD15xTJPEi3OmxabNZKbGAhoIxKQysOpLY5znngdOMVLNo3sV5fD2oW0lvHPDse5ZUiUsMuWAIx7fMKmPhrUESWRlj8mLO+XzBtBBwRn1yatXviqbUbywu7i1j86wMQidSRlECgKfUZXPryanTxYyWt1aw2rRW90zPJsmxJvZsk7sYxxjGKjQrUz28Lastx5P2Ri/2YXeAc5iPRqb/wAIzqZ3bYlPlkrKQwIiIXcQ3pwD+RrbHj6+WPbHbwghFjV8ksFEaoB9Mrux6k1QXxU0EkrW9qYDcTi4naKYhmcAgBTj5V+Zjg5znk0aC1MWHS7q5Nz5CCQWqGSUhhgKOp96BompPpbaktlKbJes4HyD8asDWmS/v7pLeJPtkUkRRBhUDjBxWcb24FmbQTyC3LbzCHO0t649aYEFbMvhnU7S3M8sA8tIxI5DA7RhTz74dfzrFBrrZ/HEl7ava3FluilhEL4m+YAKg+UkEKPkBxg8k0xalSHw9qRVNsG52CMY1I3KG+6SOwPFXIfD99JDJNEqSQxHDyK4KqcE8n/gJqS28XzQ3TXcFpEl1KiRzSMxIdUAUfL2JAGT+WKmtPEa2umXOnQ2Km0unDyo8hJJAYDnAxjII+g681DsaK5BBol7PbRTxRhhKrNGoYbmCnBIHsadP4fv4oLmfyw6WrqkxRs7GY4AP41Zs/ETWlraJHbKZrRJEjkZ+AHYknHrzjrj2q2vjKaKeaRLYOJ5RJKk0m9ThWXb0HHz5+qip0K94yZvDGqQzCGSAJKx2ojMAXOM4X1OKo3OlXFrNFFOFSSXaQpYZXcARn04INbk/i6a5u7a6ubWOW4tHEkDliNrgDlh/FyN2OOfbiqM2ui4+wrc2i3CWrhiJnLGQcfJnqF46c9aNB+8VE0DUZbxbW3tmnmaMSqIvm3IehHtVSSB4ZXjlXa6EqwPY1du9Wnn1M3kMs0UmMBvMGVGMYG0AAY4wBxVQHccnk96QK/UtWul3F1bmeJQIw4jDMcZcgkKPfiry+Gr47RtjBZpEAMgzlAC/wCQI/OjR9YfSllCxeaJMfI7nYfqvfHUdMVdh8TTJdRzeQvyS3EvysQf3yKp59ttPQdpdDLttJmuxP5DxEW675CXxhcgZ+mSB+NJc+H7+GG6kaNWWzVGn2tkxhuma0tInY3V4EjLJdQmJvMfLAblbOcDJ+Wrd34te21O5kjtVlSYoJoppCyMqqylQMDAIY/jS0G3K9jnLjwjq6JlrbaSm8IWAYjbu6ew5rHl8P6kZtRjFuS2m7vtWD/q8NtP610eqeMdRvLZIifLIcPIyOR5vGMH2NU5/Gckd7d3FrZRp9uuXuLpJGD+ZvzlQcDavzH3962jY5p36mLJ4av1h84tAI/IFxu80Y8sttDf99cVXm0S+t7yG1eMG4lICwqwLAkAgEduCK0o/Fckdt9na3IT7CLLMUuxtokMmc4POTjp0qnqOuvqFpZwCIo1qWKzPIXkwcYUNxhRjIHOCTzzxqznILzTbzS7s22o28lvMACY5BggfSrthayT203l4AjKs7E4CjkZ/MgfjWc881zO01zK8sjHLO7Ek/ia19KujZq8oDH5lHytt9fzHtUrc0WqLMWm3Bj3HaBgEZbk56fnipRYym6NsChkBII3d/Sl/tV5P+WUa/c4XoNpJH86kk1AvqX2xVO4sW2s+cE57+nNYts6EiH+zbiTYIwrF1LKA3JAJBP6GoBpV3NEkqJhJASpZsZwQD+pFXl1R4YYVQHdCjIp3ccknOPXmo59dnKOsSLFnIUoSNgO3gf98frTTJaMp9Mu2vEtBETM67gue2M1CmmXEyKyFPmZkAL85UZI/AVffWGRhKkWLgQrD5jEMABjnBHUgY/GoBrTR3SyiALtleXCNjl1Cn6dM1omZNGdNaTQRLK5Xa/3cN94eo9qX7Fcfudi7/OOE2tnJ9PrUs2o+ZYvahGZWfcGlfcV+nAwT3pl5ei58ny42hWJcKgYFR9AAMfrVXZFkF9aT2SRQ3cTRSgsSrjBHSo7LTrjUGk+zqu2FN8jscKozjJP1NFzLJPEkkztI7MxLMck9Kn0XVW0e+FyqM5AxtEm0N7Nwcqe4qpbkx2Jk8Mai6btsS/JE+DIM7ZMbD+ORUMeiXUusf2ZG0Jucldu/gsO2fWtGXxdPLM8n2SFN0VtHtTIVRCVIx9dtVn8Qv8A8JOutJExkEnmeXLLv59M4HHtSsMIfC+pXM8UNskc0s0TTRojglkUElvpgGi18LardWkNykAWGZdyO7BQRvCD/wAeIFW7XxjcWcdqYImEtravaofN+XDKRuC44YbvXtVm7+IOoXNtNFBBHaF12o1uxXyhvV/l9OV/WiwGRH4a1WXV4tMjtGN5Km9YsjOOf8KWz8PX17axz2/klJCwAMmCCoy2foOaujxdNEqzW9uI75bdLf7Szh/lU5yFI6k45yelOj8YyRXz3EVjHErzzT+XG5G0yrtYKe2OopAZFzplza2cdzN5YilyYiHzvAYqWHqMgj8KV9GvV+yYiEn2zIg8tgd5BwR9QTVmfXTLo8un+U7o8m8NPL5hQ7s5XgYJ6EjqO2eai1HWXvbOxtki8pbLdscuWcliDjPZRjgdueTmgCtf6feaXdG21G3e2mAyY5Bgj8Ku+GoIrnWkS4jWVNjHa4yM49KzJ7ia6maW5leWRvvO7Ek/jWt4VZV11NxA+Rup9q6MMk60b9zkxzaw1RrezOx/svT/APnxtv8Avyv+FWh4Yha3SVNNtWDrvULEpYrnGcY9ab5sf99fzrTi8QGCGEQCNJYY/KWQtnjdu6eua+nqQj9lL8D4GnUm378n97KDeFI13/8AEttT5ZIfbGp2kDJB461KvgtmmMI0i28wYG0xL3Xd6elXIvEQt7gS28UKhpvOlQvkOcEbfYcn8+tSyeK55PJLeUGiEnzhsFi/c/QcCsuWXSKN1ONtZS/Exn8NQRwGZ9MtggCtkwr0YkDt6qaJfDMESFn0214YKwESkqT0BGOM1rXXiX7bEyXEcY3RxqWjfbyhY579SxzTV8QqkxlEEJaSRZZcvkMV6cdhk5PWmk+sV+BLkuk5fiZ7+Eo45Zo5dNtI2hKq+6NBgt07VFF4Zhma4WPS7ctbKWlXyFyoHXtWq/iIT27R3cccpfZvYPt3bSSM4+uOKih8QSwXdzdJInn3BDFgR8p3Z6fpTUZWfur8Ac1dWlK3z/rsU/8AhE49+w6ZahiQFBiT5iQCAOOTgilTwgHXcmk2zLhDkQr/AB/d7Vpz+JxcXguHghUxyiWJFf5UIUAfUfKOKW28WzW1rFABC4jR13FuW3ZIz/uknH1qeWdtIr8ClON9Zy/EwrjQbO1kVJtOtQWUOP3K8g9O1Ur/AEuwXTrgrZW6kRkgrEoI4rWuL5bgxl5BlIwgy+elUNQljOm3Hzr/AKtu/tWsow9m7pXsYwqVfaq0na67nmdFFFfIH6OFAooxQB1Phn/j1k/D+ZrcrD8Mf8esn4fzNblUSef+If8AkMyfj/6EaKPEP/IZk/H/ANCNFUhGbRRRQBoad/x7t/vn+Qq3jiq2mLm2b/fP8hVvFZPc2jaw2kxTipoxQVoNpaXbRt96BWEBp3WkIxR0oAWlBpuaWgBwNLmmZpc0DHc0Ak0lLnFAxc0oNNooAkBpc1HSg0ASZpdwqLNKDk0ATA0bvSot3OKUNikBLkUZqINShuKVhkmaWowc0uaB3FNJRnNFIdxpFNYU+mvQDIGPWoHNTPVeQ1SM2RuajNOc0w1RmwoooqiAooooAKKKBSYDhT160wU8HFSaImU1KhxUC9amU1DNolhTxTwcVCpp+6pZoh5bionNBao2akDEY1ETzSsaYa0SM2LT42qKpFODSEmXYW6VcjbpWbG+KtxvxWbN4l4NmgtTIQWV2/hUZppbNQaAWphakY4qPNMQ/fzUiPVZsr1pUb0pCLyt0qZeRVON6sK/FBqi1DcyQA+UcbhzVWYk5J5Jp+eKjYM5woJPoKWgFC46Gs2YZrSuBjIrNnOM1rE5amxVakHWg0grc5CeM81Ok8qAhHYA9QDVePrUlNbjexMLu4HSVvzpfttz/wA9n/OoKKZBP9suP+ez/nSG6nPWVvzqGigCQ3Ep6u1J5sn940yigB3mP/eo8x/71Nop3YCsxcAOcgdPam7R6UtFIBNo9KNo9KWigBNo9KNo9KWigBNo9KNo9KWigBNo9KMD0paKAE2j0ph+V/l4+lSVEx+Y0DQ7zH/vt+dJ5j/32/Om5oNLmY+WPYd5r/32/OjzX/vt+dMoo5mHLHsP81/77fnR5j/32/OmUUczDlj2HeY/99vzo8x/77fnTaKOZi5Y9h3mP/fb86PMf++3502ijmYcsew4yPj77fnSF3K8sx/GkpD0o5mHKuwlFFFIYUopKBxQB1Phn/j2k/D+ZrcrD8M/8esn4fzNblUSef8AiH/kMyfj/wChGijxD/yGZPx/9CNFUhGbRRRQBraQM2j/APXQ/wAhV4pVPRv+PN/+uh/kK0MVk9zeOxAUpNlT4pCvpQVYrkUYqYrTdvpQBFiipCtNK0CG0UuKMUDEooxS4oAKXPSkooAdQTgUmaM0AKKKO3FH1oAKOlGaTNADs0ZplLmgB4OKXNR5NLmgB4bmlzUeeKM0gJM0u7NR0ZxSsMk3Uxm4pM1GzYoAa7VXc1IzVAx61REmNam0ppKpGTCiiimIKKKKACgUUoqWUAOKeKYPenUFIkFSqahFSLUs0RMpp27NRA0tQaXHM1MJ4pTTCaLCbEpMUtAqiRNtOFGKcoxQxoenWrtshaRcAHJxgnGaqIK1re6j/skW+Nsqy7t+P4cVjNm0B8h8i3aDuz5PsB2qKmO++UntThzULY0bGtzURBLADqamaonxVCLWqTR747eIKRCgUsO571ng4pGpuaUY2VhXLKPVhHqkhqwj0mXFloNmrWnX6WF15jpvGMGkaziTS1uRcqZM4MXes6RuOKnSSsO6aF1W5W7vZJo0CBj0FYs9XZm+WqExzmt4Kxy1Cue9JQaK6Tk6kkdTVClTUkN7BXoOqaP4XuLofZZ7GIJLtEcd4ih0LKN27dgYBJwea8+opkncWejeGIJt0l9b3UflHy2kuVXzHKtwVzlNpA5OM/jT7bRfDHlPHLdW2JhC6s14gkiG5g4ODtzwOATwQeK4SigDurHwnol3ppuFvoJZ1jeT7Ol4gyvl7xuJOVwRtJIHWqWl2Phu11bUv7SuI57PcLW2w4JDP1l4PIUA89MkVysc0sO7yZHj3qUbYxG5T1B9qZQB3d3oXh+WJPMvrNJobVQohvYytzIEckHn5PmVRk4zuptroHhiK/t55dRt5bdHj8+N7pOpkjDLwcsArPyOPl61w1FAHVadZ6RLeTJcGzRYtTjLB7hQPswJ3BWzhhj0yaE0/Q4ta0iRZ4Gs58m4SWZSUO0E7gDgDJ4yQeORmuVooA7ay0jw1rZluZb230yNR5aoZlViyKmW2k5AYk4xnpS33hrw/Z6Z9omu9k8kCyLBHcxvjIk+YEsN3KrwM9fcVxSO0bh0YqynIZTgg064uZ7ubzbqeSeTAG+VyxwPc0AdHpUGj3umabBfvbW7vNcCaQMFchUBjBJOFDNkZOBWguieE/MgU3/EkkSuWuox5YaTa2cEj5R82c9ua4iigD0FfDWg2KyRz3ttFLNZp5TXFyhBLqp346rjJx7Uz+wPC6W5t2v7VpHCSGQXaEpxJlAd2MEqvf8Ai7Vwks0s7BppHkZVCguxJAAwB9AKZQBb1SK1g1SePT3Z7ZW/dlypOPqpIP1BqpRRQAVC33jU1Qt940DW4lFFFSUFFFFABRRRQAUUUUAFFFFAB1pD0paQmgQlFFFABRRRQB1Phn/j1k/D+ZrcrD8Mf8esn4fzNblUSef+If8AkMyfj/6EaKPEP/IZk/H/ANCNFUhGbRRRQBsaN/x5v/10P8hWhWdo3/Ho/wD10P8AIVoZ7Vk9zeOwUUdKTNIoXHrQRSA0E0hiEUmKWkoQDdtIVp9FUBGRRt4qSikBFg0AetPxQRRcBhFGM07FIQe1FwEyRSZpcUEYouAlFBGKSgQUUUUwDNGaKKAFzQMUlFADs0ZpKQnFACliKiZqcxzULtSE2NZuOKiY5pzGoyapGbYUUUVRAUUUUAFFFFABQKKKQxRTqYKcKRSHqakXpTF6U8VLNUOHtTjSLS1JY0saTpRSHrTRLFpQKltnt1837SjNlCEwejVGtLqA4LUix0IMip0GalmiQixVPGm2nIo4qYLUM1WhGF5PFOAqQDPHvRMhicqeoqeth9CJqhc09m61C5zVCI2NN69KDSwyNFMsifeU5GRmmIkeKSB9kylGwDg09Dg0qSfabwy3bk7jlz3NOnlE0xZVCL0VR2FSykPVveo3alB+Wo5D1pJFtleZutUpTVqZqrxwyXNwsMKl3c4VR3reByVNStRU13azWV09vcoUlT7yntUNbHL1JEqaktbcz7j5iJtGfmOM0tSmm7FSTSTCu31TwFFDN/oN2ViSbyJGkBb5iyheAP8Aa59K4irZ1XUDIJDe3BcDaG805A9Kog6W18BP9pkjv76NPKh82QRqWxlWZcHofu84pbbwEZYH8zUE3sYjBIqExuGLAnPXgqR9a5Zb+8RI0W6mCxnKAOcL9Pzp39p3wbcLyfO0LnzD064+lAHQw+AruXTzetdxxwKGZi0bbgAm8HA65UHFM0rweLjVdRtL+6ESWoESSrjDzP8AcXnt1J74BrJs/EGqWKsILyXDRNEAzkhQwwcehx3qkbiZs5mkO595+Y8t6/XnrQB08HgC+mtnka6hjeJQ0sbKwKDy3fr0Jwhpw+H10+PJ1G3k+VpDtVvuDdlhxz908daxpPEmpyafHZidkRJPMLKx3M2CMk59GPTHWqQv7sMGF1MCDkEOeDnP8+aANG78PNaaJFq32qOW1lYKgClWZsnK89CAAfxFac/g+OfD2M6wRJaQTubh92WljDhRgDpyM1z91qlzeWcNtM+Y4mZwOSWZurEnqeAPwqJb25XdtuJRuQRnDnlRwB9PagDqW+HlwJ/ITU7d5fMkj2hGGChQNzjtvH1qRPADyaV5kdx5kz3EYWRVIRYysu4sp5HzRjn0rmLbV761vI7mO5kMkb7xuYkZOM5+uB+VDaxqL3Dzm9nEjtuLCQjnkfyJFAHT3fw9eFVCajEpRVEzSAgB2ZwAPb5DzXF1a/tK+ww+2T4YEEeYeQTk1VoAKKKKACiiigAqFvvGpqhb7xoGtxKKKKkoKKKKACiiigAooooAKKKKBBTacelNoAKKKKACiiigDqfDP/HrJ+H8zW5WH4Y/49ZPw/ma3Kok8/8AEP8AyGZPx/8AQjRR4h/5DMn4/wDoRoqkIzaKKKANbSD/AKI//XQ/yFX81n6T/wAejf8AXQ/yFX6ye5vHYM0ZoopMoM0UUUhhRRRmhAFFJmkziqAdRTc0ZqQHZFFMpc0h7jqQjmjPFAoGJikqTB9KRlPpQBGRmmVKRSbSaBdSOnKhbtUqw9zUqqFFDkUodyJLYtVtNNDrxSIauRy4FRzM05UZdxYvBk9RVauj3JKm1qybuxaIlk6VakZSjYok4ppNK3B5qNjVGYMeKhY04moycUyWxp60lGaKpGbCiiimIKKKKACiiigAooooABTlptKKkpMlWpF54qEdqmWoZtEeBS4pR1p2M1JoRNTD1qRhUeKaJkJ0p69abinL1qiSdOtWI6fFply8IlCcEZAzyfwqSyWH7Wi3ZZYt3zY61jzxexuk1qxUqYDNPuhbrdyCzZmhz8pbrSIdpBBo3LQhB7U69bMob1UGrl7cW8kcP2dNkmzEhx1NUpYGFsk5YEMxUDPPFTa7uPm0KyRSTy7Il3Me1Nu7Oa1I85cZ6GrumXEdtcMZeAwxn0p+sXkM8axwndg5JrJymqiiloFly3MSgDmn7amlt/JKqTl8ZYentW1+hKTIkFSCkC4qQCkaJCgE8DvUM5wxA7V0Gl20E1m+9TLLt47BB6k1z11hZXAIwCeRSW4pNEE0m+MIqDI7jqaltraGO1+1XUjwFWyhVvmb2A/rVeOQxuzbioxzjvVZ5mZsyfPxjntWqi3ojmlJLViXU5ubl5W3fMf4myfzqLrQTmit1sc17sctWB0qAdqnHShAwrcvvCGr2M6xCD7Q7EriDLYIIBHT3HPSsOuln8c6lcOxlit2RpBKyFSQXBBB654I6dKZJQs/DGr3rhYrKVQyswZ12jABPX/gJp0PhXWp4pnSwlBiKAxkfOd+duB+FWv+E11Qu0jiJ5ZEEczleZVAKgH6A9valTxtqMZTEcB2oqglSSdpJBJzk/eI57UAZsfh/V5QDHp1wwJYAqhI+UZP5Dmnaf4e1HUry6tYYNk1pE0kqSHaRjAxz3JIAHcmtix8dTwafJZXVpDJbtCyBUXbufyygJ56YPPrWcnirU4bm4uIHWOa4nSaR1Xk7M7V+nPT2FAFePw7rEyI8Wm3DrIm9SEPK4LZ+mAT+FWm8I6qthHcmA7pG2iAIxcHPfjA9eta6+PUWaTGnoIZrFreVF/jcxOi9+FHmHgc1THj3VhF5QWDysbNmzjZtK7fptOKAM2x8NatqEuyCzfHzZduFBVSxGfXANLJ4Z1ZZ/Lispp+EwyRNyWVWxggH+IVdtvGl9Z2KWlrbW0cKZGAh5B3DBOeeHPPXpT18d6qtzDcBIPNgUJE+z7q7UUj8RGv60AZUWh3rarDp9zH9knmAKCcEZz06A+hpy+HdUlYfZLKa5jZiFlijO1sZ6ZAP8LfkaWTX7uS9sbpgnmWMflxfLxjezc/i5q3H4w1OK1jgUx4jjaIHHVCGGD9N5oAqt4Y1xWIbSroFV3HMZ4GQM/mwH4ipJfCurRywxrbGRpI1kbYD+63Ntw2Rxz1rQt/G8/9nX1tfW0c/wBoRRGMYVWEkTZPOekQ/Gkf4gavLHIJFtzJIjIZPL+bBOTQBj6hoWpaY032u0kVIZWhaXHy7gccH8Kz62tW8U3+r2zQXARUaRpDsBHVixH03MT+NYtABRRRQAVC33jU1Qt940DQlFFFSMKKKKACiiigAoooNABRRTc5oAUmkoooAKKKKACiiigDqfDH/HrJ+H8zW5WH4Y/49ZPw/ma3Kok8/wDEP/IZk/H/ANCNFHiH/kMyfj/6EaKpCM2iiigDV0j/AI9H/wCuh/kKunrVLSP+PR/+uh/kKvGsnubx2DNJmig0FDqKTPNLQAhNJQaKAEpKWkJoAM0ZptGaQDs0bqbS4PBqShwp69aYKcGpFpdy1GR6VYUKw5AqpFueQJGCzHoAK2bbRp5U3SOsQ9+alK5TlFLUzGgXnA4pnl+1b50Heo8q7jJPY8VRutJvLUZeEsv95ORTsyVOLMxuKiaTnFSScZqmHyxzSRTZaWTFSrK3aqQbNWIuaBpltJGNTKzMuGGRVdSBVlSAtA9ytcacsvzJwfSsyeylj/hzW8JMdKlUrMMMBTu0Q4JnIMjKfmGKiausltYmYhk5qvJosUq/JwatS7mUqTOaoq3e6fJZt8wyvrVStFqc7VnYKKKKYgooooAKKKKACiiigAoFFFJjRItTJUC1IpqGbRZYBp1RqaeDUGohFRkc1MajIpoTGUq8MKXbUtuq7ju/CiTshJamzDriLAAYiXAx7VQ8ze7MepOaZIo2jpntihBWEKcY3cepvOUnozTtLYSR73JwegFOmiWFgCSVI4NQ2ly0YCcY9+1W76OPMbJcLIGXOFH3T6VHvc2uxt7nKrbiPD5lpG8PzsCQwHX1FWI7Ei1V51Klg20Nx+OKr28wgXOOQcgVda8uLtkbb5j9MY6DFJtiUbGXG1stpKHRmmYgIeyj1qoyZq4QrZwuKWGANKN52oOWPtWl7InlKkQEcgbGdvIz604xuzZOWLHOfWrMgjd2Ma7QTwK07K3QKkIkR2kGdo6rUtlWVjB2YzkUYxV3ULN7W4dT0HTHYVVSPeTkhQOrHtRzDGG5kSFo0chG6qO9UZTmr0ixt8sIJx1Y96kTw7qN1atPDFuTtzjP0rSOrMamiuYUh7CoCalkyrEHqOtQmuiJxy1CgUfSlAyKpkWHCpx0qKIlW4UHjnNS0IGFWbvT73T2UX9ncWxf7omiZN30yOarV3N148srm4MhsZlJl8wOGXcvzKSvTBB24J6mmScVDBLcSbLeJ5XwTtRSxwBknA9qFt5nheVIZGjjxvcKcLnpk9s12EHjm1t3Lwac1vui8vy4WAWL5WBZO4J3AmnQeO7WHpZTfOsRkCyAKzIWx8vQDBHHqKAOJqza6dfXyyNZWdxcrFjzDDEz7M5xnA46H8jXZ6d4w0gaa9vcW8sMyxSMtwSGYuY9pCnHGWwaoad4xt7G91Kb7EwS8uYZlRCowEDgg8cZ39RyKAOTwT0p80MlvIY5l2sMcdeoyP5118fjLTEj2/2ZIBIMTBSoP3UXCtjI+5n8T61NH48sFlh36OJIYwuYm2kFg0Z3dPRG/wC+qAOHwfSp7fT728jkktLS4njiGZHiiZgn1IHFdSvjW24M1iXZGBRgAuRt2nd/eOO/UdaxoNYgt7rU5EtmaK8J2Ru2do37sE9+BigDIwR2pY43mlWONSzswVRjqT2rtT4+gE7PHp4UGRCMKoIQFyU9x84x9Kmfxnpi6bYzC3Z7kNMJ4AAFbMcSq7HHJyrMMdDQBxJsboXEsH2eUywhjIioSUC/eJx2GDk1BXdv4+sAk32bTp4nm84M4lGQJIypAPpuIP4VzviPXI9buIngtVt441IVQoGM9sjqB2oAxqKKKACiiigAqFvvVNULfeNA0JRRRUjCiiigAooooAKKKKACm0ZooAKKKKACil2nbuxx6000AGaWkpaAOp8Mf8esn4fzNblYfhj/AI9ZPw/ma3Kok8/8Q/8AIZk/H/0I0UeIf+QzJ+P/AKEaKpCM2iiigDU0ri1b/rof5Cruaz9NbFu3++f5Cre+snubR2JaM1Fvpd1A7kmaN3vUW6jdQO5LmkzTN3vRkUBceTimk56U3OaetK41qABNPSLJ5oDYFORsmobZoooeIRjpUcgwp9qsoc1XuQR8wpIrZEAkqaCNp5Aqj6n0qopz0q5JL9ngWOPh2HJ9Koi5ea5Fh+6ssNORh5euPpUQa4m5nuZWz23VUh4AzVlHz0qWyorqx6xICCGYHPXca1LHUbm0b93OzL/cc5FZPJPFSxls0XZXKn0L+sLBewG5t4/KnAzIo6N71y4PzEV0ZJMZHeudnXy7hlPHNUtTJrlJlqxG3pVJWwKnifNSy4stBz1PrVqL5l5NVVUFRmp4zt+npUs1LOAuO9OQfMKiDA1KDjGKVxpXJ5o90W8feH61BHMAKswklcGs18xzuh7GncGrFq5SO7tyj8nHFclcQNBMyMMYPFdVEc0TWkFwuJVGfWrjKxhUp82xyFFal/o0kGXg+dPT0rL6da2TTORpoKKKKYgooooAKKKKACiiigBc1IpxUdKDipaNIvUsKakBqsDUgNQ0apkxOamtLSW9uVgt13SN0FVt1SRs6vmIkMOhU4NS9tCtx08D21w8MoAdDg4OaYtT2qRSzN9rdlBHXPemmL98UiO4Z4PrU8yvZlcrtcRTU6dKi2FT8wIqVKRSTJkNSKaiWpFqS0a1u1qtqdzYmf5TuGQo9aqb2ikKo5xnhh3pWUzxiRcZUbWA/nQkLFgo5J/SslZXNLNssW9vEWyzOcDJwvSrNxbQNBG0LEFjyp7Vbi0eV7ZpvUdPUU+OyyquyEqOMetYSm0UpQ7mW1ihlwudo6n1pkyOQZ4ykSJwig4P/wBetr7OIwSYeGHyhjWcViEgHleY+cnJwBU06rb94ektia2vFmtRG8I87rkjqKpXH2mOYykREjgZQELU1xdLbFH2KZhyXB6j0x0FZ97f/aUZlyCRyBV6tjUY2uzNuZGSRm3ZYnJNaNt4xubPTvs6QqzKMByelZsyxi13+eGk/ubD/Ost25rupo4qrWwSMsgdnBMjHINQlaceTSYrdHK9QUZ9qB1wOanisZpgGXaoPdmApXsxEp3XMOfRTmp5ojsyFFxGTuwc9KlFQCpx0q0Swoor0LVU8J310CjWKBJflSIiJWjLLklkA5AzgHJ69elMk89oruLK38I2k+9ZIbmPySIjcsSXcq2d69Bg4wR9e/D7aDwkkMkTtamOYQt87t5keGYONwOMnAPHUEcUAcJRXeafoPhm801pVmgku44nmMInZVC+Xu+Yk5G1uO3Xv1rIA0qAarHpclqZxPGLaS7VXXycNvC7gRnds5IzgH3oA5qiuxSy8KraSSzTRySrAzxKJSPNk8snDAdPnwABjIqzf6J4ZsrmSFnjS5j27IXuW2OpCEl26g8tgD/9YBwtFdv/AGZ4Oe9dIb1BarC7LJJI2923Pt44HQJxj+L8otcj8LS213c2giE7Kghjtm2qmIk52k9S2/P0980AcbRXWWU2iXmn6ZDqhtkMcMzTeVEkbO4b5AzgA/d96tpZ+DHKxhiAzQLve4O4b1k3kgcZUqg9PmPXsAcRRXop0zwzpsmo2Etxb20ssawjfIXwvmwNuP8AdbHmdOwqCe18HLapbxyW7bN8m4OQzOY1whbd93O7v1GM80AcDRVi/FsNSuBYBxbCRvK3kFtueMkcGq9ABRRRQAVC33jU1Qt940DQlFFFSMKKKKACigmjtQAHim5pRzSUAFFFFABRRRQBp2+u3FvpT2AiheJweXjyRn3rLNLSUAFAoozQB1Xhj/j1k/D+ZrcrC8Mf8ekn4fzNbtUSef8AiH/kMyfj/wChGijxD/yGZPx/9CNFUhGbRRRQBe084gb/AH/6CrW6qlj/AKhv9/8AoKsZ5rN7mi2H7qN1NyKKBjt1GabmikA4Hml/GmUbsUmNaslFOzUStxTi9SbIkznrUqcDioEOetTI1IpFhWx1pzIsimocE9KfFnoakrcoGJortVPQnrT7l9122e3Aq7cRbkzjp0rKyfObf1zVrUyasyyHxipkYkiqycirEVSzSJbXjFTBhvGPSoFx9amQfSpNCYH9ayNWi2sso+hrYUcVT1KPdbsMdqcXZkzV0YyP8tWIOT1qgpxV23PpVyMIO7NGNuOasoMgVVSrMROcY49ayZ0kiqc1YUHPtTQBxip41BpFIljXjpWVf5S+b3Ga2kXC1jak3+nr/u0CkxI2bdU6q23JqKPrVgc4piHopHB5BrB1vTPIb7RCPkP3h6V0CCnvEs8LRyLlWGKcZWZM6akjhKKsX1sbS7eJux4+lV66r3RwNWdgooooEFFFFABRRRQAUoPNJRQO44H1p6tUdOBqWi1ImDetWrO8e0nEsYViOzDINUQfWnq3PtUtGkZFqZmdyzAKG5AAp9rMsE6uyb9vIGcU25vXu/LMgUbFCgKuOKYrVnbSzNU7O5oXkizyB4htDclc9KhQEdajV+atm43RLGqjHdj1NZ6xVka/E7jVFWBC20t0wAee9QoO9aNpNE0o8/ptwKmTaLik9xLNlXdu4JHBPT6Vq2Ns1xcK8QBJ++fSoXtlEKpHKSCclSOn41taOttagL5uZHHTHSudWnOxVSTjC6NhVAUDGABShFA4HFBJ/h5oGf4q9WyPIGTQJKpDD6Vy2oaeY5v3gOOxHSut61HNEksZV1DD3rmrYdT96OjOijXdN+RxRhRMjaKpXRWNQI4+fYV1F3pqBsotZNxaPzsXP4V4zc6c7TPXjVhONkc0bOeZye2emKr3UCWuVxl+5PaugeWaxjI+Rt45IXGKyL+8ivYiPs6ebHyWBI3D1r06VRy9DkqwUV5mOzgnimZNB60Cu484KUZHFTWdwLW6SZoklCnOx+hqfUtTfU7hXaGKEKMBYlxSvqBTqcdKgqcdKpCYUUV32qeB9PE+LO5eGOObyX2IZWbLKFO0lemTkg46YpknA0V2tp4GtEuWS+1IyBIfMbyYxtbKsVCPu+YjbyMDvTrbwNYyQusmpSEyeUYLhYV27WLBjt354K4wcHPbpQBxIYrnaSMjBwaSuytvAIn043rX8qRqrMUFsrSFRHvUgCTHIHQkEcetVbfwzZr/AGpFdXqB7O8toElOQHV9+7hQcH5R9OeaAOXpWYu2WJJ9Sa7d/AFvLq8tvHqhgjWQkEw71CbnAAbcNzfJ0wO/PFRJ4EtpYxNFrLGFY1d91squNyowABkwcB+eR0OM0AcZRXZv8PwPLEWpNN8iSOywKq7GzyhZxuxj261OfhqUuLiCTVlEkGSzCAeWQJXjwGLj5vkzj3AzQBwtFdFaaRZQ6/d2EzLexRW7ypLkoSRHvAwG9eDyfY1ox+BbZuZtZWMiISskcAfGWiAx8/I/e9Tg/L05oA41mZmJYliepJpK7RfAMDBXTVnaOSbyEb7KMBsOSX+f5V/dnnng5x2q9H8P7KXVlkknkhsWmiQRKFYsGTqG35+8O4HXjNAHntFbeu+H49GtLWVb9bh51VjGEC7QyhhyGOeuD05/OsSgAooooAKhb7xqaoW+8aAEooFFSUFBOKKQ0AGeKM0YNJQAUUUUAFFFFABRRRTsAUhpaSmK4UUUUCOp8Mf8esn4fzNbtYXhj/j1k/D+ZrdoA8/8Q/8AIZk/H/0I0UeIf+QzJ+P/AKEaKpCM2iiigC3Zf6lv97+gqzVay/1Lf739BVms3uaLYKM0uKAMUAJRmnUhGaAEzSA5pzcLUYNIpEgoJpM03NIu5KHwtTRNk5NVc1LE3rSZUXqaUfIGKfwHqvG3yjmpR1rM2RPkEGsq8jCShxWkDwap3i7lpomauiCM5qwnaqcLcVbiOSKbJiy1Fz1qwgqunHSrEdZs2LCjiq15/qyParINQXQBSmtwZzDjEjAdjVq2bioLhdtw31r0jwr8GNd8ReHrXV7O7s0guVLKsjNuAzjnj2rdq8dDji1GWpx8RzirsXau6uPgd4ps4TJC9ndFRnYkpDH6ZGK4t7aazuZLe6iaGaJijxuMFSOoIrGSaOqMk9hw61PEeag6CpY2qTRF1T8tYWqNi/X/AHa2UbisLVGzqS4/u0CZKhzjFW4hwDVSHnFXIhxSGWEWpkU1CgqylMDmfFNvtmhmA+8MGsCuw8TQiTSi/dGBFcfW9P4ThrK0wooorQxClBpK9F+HHwpbx9pV5fHU1s1t5PKVAm4lsZyfQc0AeegRnqzL+GamWwnkQvCjSoO6of8ACl1GwfTdWubB3WR7eZoiyHhiDjIqWOSRYwk1/Iq9o0kJ/riobs9zSOpSeN4ziRGU+4xTauvNaBDhZJnHQu3FMuL43MUaSQxr5abVZBg/j604ttXYpRS6lWlpKUDd0psSFFOBxXpHhT4Ma14i8P2+tQXFmILlWZI3YhuGI9PauWufC89rcTxXAaKaJyhQjoRxWM6sYfEb06Up/CYiuRUitgV20Hwj1ufwdJ4jiubU2yQtL5e47yF7dMZ4rlZtJubPyzIFZm52Dt9abktPMcVL7iJAxUsAcDqamXggfyqcxyTKFmKIB2QYp0f2eEjHX3qLN7l8y6FvTYIZZP8ASH2Jg/nTvISPLBtwB+lUWvc/LEpY+1X9C06bW9cs7GVzBHcSiMsOSMmp5NTRSuWPtYUBdxY9u9a2lwtcShnYRgcjPU1q+Pfh7a+Bo7CSG9luzdM4+dQNu3b6fWsCx817lET5O+WrmmuSZunz0m0zrgdo5qGW7VG2KrM3sKoXN4zKoIDqp5I71etbiKYAIw3Y6V0e3U5ckXZnmum4q7Q15Z1+by+KljkLgZ4NTUhUda6FFp7kOSfQrSh1bcvPtVGcM68Db9Kt3V01q+GG5TXRad8P9T1zSYb+0nt447hdyq7HP8q4K/LUbpx37G8PdtJnBSQqAdygj3rl9aEMcjNHAqsP4lODXs8nwi1xx/x9Wf8A303+FcJ4/wDAl54Xht31GWGQ3BYIYiTjGOufrXLhKVWnJ86aR1upCcbX1PNHUFiQMD0pu2ppF2vzTO1e0jzXuR4NAGDTzTd2KYhamHSoM1OOlNCYVMbq4LhzcSlgNobecgelQ10uo+BtUsZ1ijCzEsVJJEYByAOWIGCTx680xHPCeZVRVlcBDlQGPy/T0pftVxuz58ucbc7z09K2LTwfq9zLseBbfEZkPmyKCoAJGVzkZ2nGRzSw+DdXmW4Xy4lngaNTA06byXzjvx0zzQBmWuq31lu+zXMiBo2iI3HhWGDj0qt5j8/O3zHJ56n1rUg8MatcwmaC3jkiUsGkFxHsUqMkFt2BxzzUlt4W1C4tNVlwqS6YUEsBOWbdu6Y4OApP0FAGT9omwB50mASwG49T3oW4mRgyTSKR0IYjFbV34O1a3v5LO3iW7mjjR3SFwWXcQANucnlgOBVd/DOqozA28bFYWn+S4jbMa53MMNyBg5x6UAVLjVb258jzbiT/AEeNYosMRtUDAxTxrF8NPNmJ2ETNvbB5Y5zyfqc1ojwbq5s1mEC5YB/9fFtCEZDbt/FUrvw/qenwGe/tWgjV9jkspZfmK5K5zjcrDPQkdaAM8yOZGcuxdvvNnk/jTvPm2qPNfCjaBuPA64rYl8LXjSrHp4N2TDFMxwIwokUMg5PLEHoOeDSt4L19GCmxUsSRtFxGWyCoPAbPBZc+mRmgDMXUrxbCSyW4cW8jiR13dSAR/U1F9quNoHny4ByBvPB9a2JPCWow2ImmESSNOsKRmZNr5VjkPu2/wkYz1p8/grW4TEq2yvI65MYlQFWyw2cnljtOAOTjigDCeaSUASSO4XpuYnFMoooAKKKKACoW+8amqFvvGgBKKTNAPNSULQRmiigA+tITSnpSAUAJRQetFABRRRTQCd6KWkxTJCijFGKACiiigDqfDH/HrJ+H8zW7WF4Y/wCPST8P5mt2gDz/AMQ/8hmT8f8A0I0UeIf+QzJ+P/oRoqkIzaKKKALtiMwN/vn+Qq3sqvpozbt/vn+Qq5is3uaLYj2UFakxRt96BkWKMVLspGGBQBA9NApTyacBmkUkNIph4NSsMimEcc0DYgNPQ/NUVPQ80PYSepdjb1qwpzVOM1ajPFZM6IsnzUM4ymKmUCmyLxSLexkqdshFW4jVaYbZc1NERxVswjoy/FVpexNU4TVxfu1kdBMCMCo5hlTQG7ZpWYMuKAOcv123H1r6X8Kvcx/s4h7BpVuV02cxNCSHDfNjbjnOfSvm/VEwwYV9MeB9Uk0T4AW+qQxrJJZ2Esyo/RipY4NdEfhOKorSMj4LXHi+e6vW8QyahJY7Bsa/Lk78/wAJbnpXI/EUR6x8ULqDR1E8sjJCRH/FIAAf8Pwr0zwv4sj+KPg28t4ppdK1BV2SC3kwUz0YHrg1538PtIl0T4uxabq6bbi3MgGf4mxww9cjmol0RcXZtm3H8J9I0yyhbxT4gS0uJ+FjUgDPpz1rm/GvgC68IyQzxTC7sbhtscwGCG64I969D+Ix8FjXIP8AhLlvzP5A8owltm3cemO+ev4VgeNfHvh3VvA66TozXLyxPF5JmiPG0jue+KJKK0LhKd0Lpnwts7bRI9R8U6sLFZADsGMLnoCT3+lcR488K6To+q6Y+iauuoQ3uVJUqfLwR6fWvTdK8feGPFmhwaN4qg8mTCoVkBCFhwGDDkGuK+JPw7g8J6ppuqaZcPJZXM4i8uQ5MbdRz3BGaLJrQOaXNaTOhvPgfb2cUUqa4UhDZnknRVWNMdc5qS8+D1lPo7XXhrWPtsiqSoyrLIR2yOhrb+Nb3K+CIPJ3eU1wvm7emMHGfxqj8CluBo+pu+4W7TL5eehOOcfpTsr2J558vNc868LeFdQ8T6u1lajyhF/r5HHEfOPzr0dfhVoMUi2UviDF+R/q9yBs/wC7nNanw0e1l1TxW9tty2qP07rlsf1ryW6a/PjafzPM+2m9Oc/e3bqi0YrU0vKcmk7WH/Ebwjd+FoGhumEtvOMRTqOG56EdjWrdfs+wJo1rfW+vlRJsedriNUSKMrlmzntXXfHh0X4c2gnx57XkQX1zg5pPjLPJD8EYFicqJWtkcD+JcZx+YFaxjY5pycrNnMah8AdNufDb3vhbXzf3CoWT7rRykdgVPFed/D/4e3vjvWJraKUWkFsM3EzDJXnoB617B+zpK7+CtSjZiVS7+UHtlRXnvgL4gw+AfGesi9tnlsLq4dHaMfNGQ5wQO/0qzM3b74ReB7drixi8ZqupQK26J2TJYD7uM9fasv4R+AbjxXpmp3Np4k1DRzFKsLrZsVEoIJ+bDDNdze+BfAnxWtbvWPDNy1tqLsWlliJA8w8/Oh9fUYpP2erWSx0rxFaTcSW98Inx6qCD/KgDhvA3wj07xpZ6m/8Abc8F3YXbwPEIg2R/C2c9+fyNcZoPhCfWfiBD4Zd2ika5aGVwuSirnccfQE13Xwj8Rf2N8X7+xlfEGpySQkE8bwxKn+Y/GvS9E8FLpnxq17xFIgW2NokkLEcb5M7z+Gw/99UAeN+OvhjD4a8TaXoGh302qahfjPltGF2ZOB0P1P0FdSnwR8OaRb20Xi3xUlpf3PCRgqqg+2eTz3qTwJr0Pin9oy81GchlEMyWmT024UY/4Durc+Jx+HI8Xf8AFapqhv8AyV2mEvs2dsY4oA8n+Ivw2vPAN7Dum+12NxnybgLg5HYjsa4xWKnI4r2b4pfEPw34t8E22laCbqWeCdChmhI+UKQfmPU9K8iitkHzTvgf3QallK59R/DTVE0r4H6ZqNyCyQQyu4HXAlaua+L/AIda502LxV4fZTDKoNyUGQVI+WT+h/CtPw+yj9mvMS8CxmwP+2jVgfBrxgNQspvB3iHa8EyMLUueoP3oz/Mfj7VMoxkrNFRk4u6Oj0RzH+zrcSM5JWwnJb/vqvLfA3ha08XR315qesx6ZaWrKrySEZYnPQkgdq9p1jQ4/DPwZ1jS1cyQwWVxtLf3Tkgfka82+HvgHR9R8G3HifxLLN/Z8KySC3hbaCqD5mOOT06CnZXBSdmX3+Duja7pssnhPxN9qni6q2GUn0OORXOeAvhhY+LLjUbXUdSmtL6wk2yQiMN3we/qMV6X8J9Z8Kapc6lH4P0O40+OFU82eZy3m5JwOWJrgvD2vroX7RWqrNKI4Ly8lt2B6Es3y/rRotQTeyOVl8NXNv48/wCEaUbZPtn2dXxyVz97H+7zXeXvw/03wR4w8PEavNdXVzdLtiZAo2g9eD6kV203g3d8b4/EGz/R/sO8nHHmj5P5EV5zq+vf8JR8erZon3W9lcpbxEHjah5P4sSazkuVXNoy5noep/EDwzD4iWyN9fQ2FnbCTzZ5GA27tuMZ47GuP1P4VpZaQdU8M6n9vCIX2NhhIvcqw4qf4/zyQ6Bpq/vPIeZw+3puwMZ/8eq/8FDOvw1le63iEzyNFv8A7mOce2c1MoRnJpoIzlCmmn8jivCWhWviGG8l1HVY9PtbVwGZyBlj6EkV1i/DbStSs3n8N64J5ox7EE++Olc/4I8A6Xq2jX/iXxBNM2nxyyyR28TFRsQkljjk/QV23w31fw1qF1fQ+F9JnskhVfMllYkPknA5JrCOHjdKS/zLqT3cDj/CGkvrWvT6RfyNby26tuIAJyDgiuw/4V3BHNL9o1ArEB+6+UAucc1k+EGz8aNdX0aXp/vVR+I+syxeNpLaViYYok2LnpkZJ/Wrp1VSp3qPrYynTvO0V0uYl5AHV4+uCQDWfH4n1vTIY7a21W4hijIVY1fCgegqdtThVM5yfSsC6xO29RuJfJT2rmxM6c5p03qb4eL1Uloe4+PdTvNP+H8N3Z3cltcM0I81GwTkc8143Ndaj4rmistRvLi9ut+2CN23ZJ7CvTvi3kfCW32Zz5lv/KuC+D4Sb4gwGbHyROyI3JDbcf4101ItyWpNKSUHoacvwb8O6dbwN4r8RpYXVxwkYZQM+mT1+tcP8Qvhld+BZ4ZVn+2WE5xHPtwQfQivXviPY+BrjxBG3i5b9roQjyxCzBSuT0ArlPiN4/8ADOu+BI9D0c3Zmt3jEfnxEYCjHJPfFdUeXZHLLmerH3XwCsRoMF3DrbRuyI8jzoqoinknOe1NvfgBp914f+1+Gdd+23G3KE7THKR1AIPFdd8W5pIfgyPLcruFurY7g44ql8Apnb4c6jliRFfybP8AZ/dRn+ZqkrEnOaT8B9HuLKWC+8SK+rQx75re2ZG8k46EZz/KvGrmH7PdSwg7hG5TPrg4r0D4TXM8nxmmZ5WLSpdiQk/e+Vjz+IFcHqP/ACFLr/rs/wD6EaYitW/J4y1aVmLmAo7+Y8ZiyrOCCGPvwPb2rAq/eaJqVhIqXVnKjNnAA3Hjr09MigC7/wAJfq5be86vIyhJJGTLSqAQAx74BI/L0pyeMdXRY0WVNkSKiKVztCsWGMnPVj7DPSsq1029vnVbS1llLBiu1DyAMnH0xTo9Kv5beSeOzmaKPbuYIeN3T88UAbln461CCze0ukjuYDAYlRl77Cik+wB6DFZ9t4o1W1vJrqGcLLPMsznaOSoZQMemHYYrO+yXO5V+zy7mztGw8461JFpt5PaXV1Dbu0Nnt+0OB/q9xwufqRQBs2vjrW7XaFuAcFTu2DdwQc/X5RyaluvHN6YfsunxRQWvkNCYyn3gwYMfxDEVhz6Tf210lvcWskcsgVlUr1BGQfyOakv9C1LTFc39s0IRtvzd/mK8evKmgC7P4w1SdblS0SC6bdKFT7xwB3PHAAwOABUGq+JdT1mHy9Qn8weYz8ZH3nLkY6Y3MTUF3ompWKqbqzkQMMjAz2B7dOCDVUWtwwQrBKQ/3CEPzfT1oA0YfE2pwLIsc+FlhihZRxlY12p07gfnk1ctPGmpw6nFdTusoWRmdQoG4MULD8fLWse3027u7eea3hLx24zKdwGwZAycn1IqMWdy2cW8pIAJwh4B6GgDeHjnV45H+zNHFAzErCE4UHPHr/Ee9RS+NNZn83zJ1Jl+8VXbzkkHg9ix/OsiOwu5pRGlvJuLhOUIAYnABPbmpRo+oNJOiWkrG3VmlKqSFVThjn0BoApUU543iIEqMhIyAwxketNoAKKKKACoWGXNTVCwO40DG4oAwadijGakYlFLtoxQAlFLijFADR96jFP20m00ANFLjinbaNtADNtA4NPxRsp3AjowfSpdlG2kBHjikqXbRsoA6Twx/wAesn4fzNblYnhoYt5R9P5mtuqJPP8AxD/yGZPx/wDQjRR4h/5DMn4/+hGiqQjNooooA0dM/wCPZv8AfP8AIVcqlpp/0Zv98/yFXOcVm9zRbC0UDpRQAtRythcU8nCnNVXfc1IYCnduOtM69KkX3pFobuNISO9SlQaY0fNK47MipPpTylJtqibMkiercTdKoDKmrML1EkaQfQ0FOaGNRRt6VI544qDcoXK+1MiarEvKmqedrfjVowejNKBulXlPy1l279Kvo/FZs2i7ofu5xTlbNQ5yx5pQSr0iivqEe+I+vWu6074u2tn8Kn8ItpczTNZyW32gSDaC2ecfjXGTruibPXFYLLtmI961g9LHLWWqZ2HgTxZc+DvEUWowKZIsbJoQceYh7fWus8YfEW08Q6vY6xpFhNp+p2bcTM4YOvYHH+ea8zg7Vdj6VLfQ2jFPVnsy/GPQdXsIo/Ffhv7VKg/hRJUJ9RuwRXJ+M/Gem+IY7G30XRl061s3ZwAFUuTj+FRgdPU1xO7pUmcYxScmxxpxTPXIPiV4Mljin1HwpvvI1A8zyYmyQOu4kGuO8afEe58ca5ZW62wtLC0lDRxbtzMxI+Zj9O1cq7fIaz7STy77zsZ2uDjPXFNSbFKEU9D6q8feJ4fDGiWtxeWCX9rPKIpoWxyCM5GeO3euB1j4yWi6I9h4U0x7FnUqJJAqiPPUqq55rmvHHxQ/4TTRYbD+yPsXlSiTf9p8zPBGMbR61wYJJpym76EQpq2p1Hg/xjfeE9XN5aYljkG2aFzxIPr2PvXpY+LnhuSUXj+Hpft2Pv7Iyc/72c/pXiEfHSrkZ45NZqUlsbOnGTuzW+JvjO98WeTcXSCG3hlHk26nIX1JPcnA5qz45+Ltp4u8CQ6BDpc1vJG0Tec8gIOwY6e9cn4h/wCQWh/6aD+RrmK3ptuN2clZKMrI9N+GXxXtfAOiXdjcaZNeNcTeaGjkC7flAxz9Kp+CfHuiaFfax/wkOh/2nZ6lL5nlkI+zknGG4PX1rz6itDE9tn+OOgaJpM9v4E8LjT5phyzxpGqt/e2oTuI/Cuf+G/xZi8EWepR3+nzX8t9cCdpEkC84Oc59zXmVW7bTLu65iiIX+83A/M0ATDV5IfEn9r2uY5FuftCDPT5s4r1/XP2gk1Xw7d2Fho89veXMBiWbzQQpIxnAGe5ry2LQba3XfqN1n/ZQ7R+Z/oKuw3MFvHjSrDPrKRtX8WPJqeYrlKvhuDW9J1q11fTj9kntnDpJJ+ox3BHFez6j8WfCepWMQ8W+HEv7lB9xYo5Vz327yCBXil/fysD59+pJ/wCWVsDj8WrLN6wXEaBffuaNWGh3Pj7xZY+KWs4tE0hNHsrRWCou0Fs+yjArjhHbw4Z23nrzVJpnf7zGkHNBSPV7D4u2ll8MT4WGlzNL5DxCcSAKCzE5x1715za389pPHeW0hjuIXDoynGCOhqgtOzheKllx0PY9a+PEWt+CbzRrnSJVuru0aB51kGzcVxux1xUHw3+Jf/CJ+D20/XdNkvNNd2EJiILfN1Uq2AR1715DjPNaMmrSmyhthjbEPlAHf1qJuenKEYxfxHsVl8btH8P3c0Wl+F1tNOZQUig2Ruz92YAY9K8uu9Xg13x9dawwNtHcXLXCqx5TnIGawW3u2XyTjPNEXl+cnnZ2Z+bFOV3G1ylGKloe63f7QMM2nS2lppE32t4jElx5o2hyMbsYzjPNeV+HtWk0vxVY3ZTzHiuN8irxuweeaq3Gr2yRpHY221VIJZhyap2d4IdQ+1SLuwS2B71l70kaqMIuy6nt2p/HbTLi9W01Dw4bixUkTpIyuc8bSoPHr1rN8VfGxNQ0I6T4T059PikXy2ll2gqvdVVcgZ9a8gll8+Z5D1ZiafbELPGzdFYGr5pcupChHmPVPh38U4vDOjy6LrNi91aAs6tHgsueqkHgit2H4y6VodzINM8OCDT24WOHbGzP13HHHSvHZmUXFxNGAQHx9QanR0utPlWTAkU7lrH2k1Y6HRg7nc+G/HEGneP9T8SLaSyxXwdltw4BUk5xmsvxZ4xTxV4ll1GG2a2V1VQjEEjAx1FcnbytCTtOMHIPoaEc+aWPUmolFzTjLYuKjGSkjdFyW71Xe6khmR0/hOarRSgHGatmETQ71OSOorkjTVN7HXpKOh2XjX4mw+JvB0ejw6dLBIrRsZWcEfKPSuK0rW5dPu4rq3lNte2zBo5gOn1Hceoppg/d1FcWysfMkwARg12e1Utzl9hyLQ9PHxr8O6taxx+LPDBu54u8aJKmfUbyCK4/4g+LNP8AFUFkmgaTHY2lnuOFwGOfVQMDp71xrywxzABP3YPze9LdWbWqi6sJTJC3p1X610c+px+ySTO/8a/Fq08VeB10KLTJrdwYv3rSAj5Mdqq/Dz4r2vgbwzeaXcaZNdtcXLTCRJAoAKKuOf8AdrzlmMjEkAZ9KglGFroOY6Lwb4ti8L+Nv7dltXnQrMPKVgD84I6+2axrmYXF1LMBgSOXAPbJzVA9qtDpQSFdpc/EBbqZnk02TDSCXcLr51IZSFDbOF+Xpj8a4uigDr18ekSNIdNVXkjEUgjm2oAFZcou35T82TycnPrSw+PRE4f+zCzlY/Mc3ABkdGYhjhAOjAcAdM5Jrj6KAO403xtp8ely2Vzp7wDyXPmxTDc7mIpgHZldx5yScVnWfjM2t5qMr6eksWoTRvLCZMAoqyLsPHOd+c9ioNcxRQB2Z+IJlk86703zZljkVGWfaAXj2EkbTnpkDIxVPW/GX9tWFzbvY+U08m/f524KPMd8Y2j+/jr2rmKKAOvtvHrR6019daeLiMBPKgEqqEKqFJ+4Q2QvUjPvV+XxzZwacDbwGS5mKeYivlYQsIT5N8eFOR0ww681wNByCQQQR1BoA1rfXZILjUZnhWZ77Gd2AARKsnQAA/dxgY61vf8ACxJhuxZHaZ0lUeag2gCXK5WMZBMuec4x78cWBk4FGDnGDn0oA7pvHlvHp1k8dm0l5GskckZlwgB2Dcfl+Y4Ukc8HB5xUM3j+F7Ke3h0dYvP8zefPB5fB/uZxlQSCTnnpXF/XiigDY8Ra+/iC+Fw8RhUFmEeUIXcckAqi8fXJ96x6KAM9BmgAooooAKYVyafTkXK5oGtyLbS7Km2Uuz2qSiIJmjZUwjp2ygCvs9qNlWPLo8ugCvsNLsqfZRs9qAINlGyrHlml8ugCtso2VZ8vml8v2oArhD3o2VZEdL5RoAq7KPLq15VKIqANXw8MRSj/AHf61s1kaGMCcf7v9a16og8/8Q/8hmT8f/QjRR4h/wCQzJ+P/oRoqkIzaKKKANDTv+Pdv98/yFW81T07/j3b/fP8hVus3uaLYWlBz0poNBOKAIppMcCoVNEhy9ItDEnqSCnLTR0pRUmqJM0ZpAMUYpF3CkbgUuaTGTQIYeaEbacU8jFRsM9KZOzLsL1OWyKzopMcGriSA/Ss2rG0JXQOOtU5hhuKuvg9KqTU4kzHwtir0TnFZcRw2KvwmiSHCRbAz1pwNMVuKM1mbEj8qRWLdx7Zwa1i3HFZ98Put71UHqZ1F7o+HtVpW4xVWHpVqFGlbC80nuODsiVTilJ71pQaTvUFzUV5p5tk3L0o5WVzK5SdsRkmqVryCfU1PO+IG+lJZxDyAaFsKWrJQGcgLVuKwnYZC1Jp8POSO/FdFbpiIDFVGNyZTscw8bxNh1IqaMcitnVLQSWxdRyvNZUKZWs5JxdjWnLmRS8Qn/iVL/10H9a5eux1OzOoW8cCvtw+4nGeMVHbaHZW67ihmI6s54H9B+db0vhOTEL94cxb2lxdNi3heQ+w4H41qQeHyF3XcwXHVIuT+LdBWlc6rZW42mdWx/yzhG7H49P51lz+ICT/AKNbqPR5TvI/DoK0MdDRt7S2gXNpa+YR/wAtD0H1dsD8qjutSjjGJr1Sf7lsNx/76PH5Vg3F7c3bZuJnf2J4H4VBRYVzRk1YBs21uqt/z0lO9v14qpPdz3JzNKz+xPH5VDRRYLhRRRTESJBK8LyqjGNMbm7CkU9qsyai7abFZIBHEh3Nj+NvU1VBqFfqXckFLTQaeo3EAck9KDSImK0tKtIpGa4uiBFHzz3NVp7WW1KCZdpYZApm9/L2bjtznFZSvOPus2jaMveRe1CeNFYRqPNlHzf7C9hWYBmnnk5bn3NKBRGPKrCk+Z3GYpQKWnAVQrAvPFSBSSABzmpdPVWvot/3d2TTTzISOhJxUX1saRWhcSJoo5EkUgMob9aW5QQXLop+XqPoaqqzdMnFTFzKQX64xWXK7m3NoOAzS9DQtNJ9Kom48S81at74xHnpWefWhTyM0OKe41Jo67SnheJ3ljDhuntWLrUcqSY/5ZHlcU2G+aK18scAnmia+86HbL8w9awpxcZbFzad3cxZdxBpkU8kYKIxAYYI9almOCfTtVRm+au5K6PPcmmdBZaFHPo8l288YYZwu7mufuYzDJtbn8ac1w6oqoSAO2ahkdriVQ3Wq1Qm015nXaJ4VtLnTTLqPBkXdGyv0rl5FCSMo5CkgV0mnX8y6ats/wAyRnK57VzcnMjfU1jRk22mXWp8iT7jfrXoWq6r4U1G73Ge2+WTMebeUR+WWXIOEzuwDjHArz2iuk5juLO+8I2c4ktzHtMRSNZoXd0cqwYyfKQRnGMZ7e9Ptr/wlHE8Tvb+XMIXeMwSNsKswZQ+0E5G09B1xk4rhKKAO+0y08KXmmuVnt3vo4ZJiJIpFRB5ZJ3ALzh+Bgtms6z1vRtJ/thrSJZg91A1rEyHDook39RwuSvHBPFclRQB2c134QW2P2e3iaXZGE3mTnLJvDDZgEDfyC3t2pwfwaLjLTo0LPl18mQMMldoU7cYHzA5wT6dK4qigDuopPBTtJO86QuBKEiEMnZmMZB2nnG3PT3NNsPEOhQ+INdurxEmga+e7sQYSRJ87Db04BVs846CuHooA786r4QXUA6qrpayxxwuyum6NVB3gBDk7y5IOMjaPWo5LvwjLeSzSywrMz+YZ4opdpO9yFClOCVKZbjBHGea4SigDutQ1LwpdRSSbYZZliCRoEkjyMPnkIfmzsOT+fWsvQ9S0oaXbWWtSDyxdu0i+WfueX8mWCk7d4GQMnGeK5migDt0vPBwVM28IYsC42yOPvIDg7Rxt3nGP6VoAeE9IZBLPFELmwXy2SKR3G8MCzcY5GMc5+lecZooA783fguG2Fss0UiSLE8xEMn3laQHBKAjgxkjHr1NcdrD2cmqytpsax2/G1UYsucDJBKqeuewxVGigAqzCmYgarVo2i5t1NJlR3GCOlEftVgR+1KI6Qyv5ftS+XVnZS7KAKvl0oj5qz5ftSiOgCt5ftR5ftVvZR5dAFby6PLq15ftR5ftQBV8ulEdWRH6il8vFAFby/alEeas7Pal8ugCqIqd5ftVkR57Uvl+1AEmkDElwP8Ad/rWpWdpoxcXI/3P5GtGqIPP/EP/ACGZPx/9CNFHiH/kMyfj/wChGiqQjNooooAv6f8A8e7f75/kKt1U07/j3b/fP8hVus3uaLYSgjIpaSgCo/3zQtD/AHzSA02KO5KKcMUwYpwqTVDgaWkA9adUsoMUh4oyaTBPWkMQ5NAFGcdKUcUxDXHcdafE/FRM3akGVIPam1dE3sy8G4qGXkUqPkUj9Km2po3dFdThxV6E1USMyMcdqmgbtTlqRF2ZoKflq1a2klxwOOapISCPrXQ6bgLUJXZtKTS0Kj6TJFImfmBYZ/Oun8TeHtPv/E1zpcMmnWFraQzXDPaxyNKixx7yH3cHoelVGBZeOo5FYus6lqMepXV/9oPn3kTwzPsX5lddrDGMDI44q7WMuZy3NiD4fpLokd5BqChrmIzWyTPGm9d2ApBbO4+wxU+r+DE8OQlhfRzTRzeTIm9Mk45YAMTjPHODXOW2v6h/YkWn74mhQbY2eBGkjBOSFcjcBn0NbFxrN9q5Q37Qu+dzSLbojyN6sygFj9am6KtI7KfQbO9h02K0k8m8k0uOfYIwFcjOST6n+lVLjwhHetcWNpeF7q2kSOcOmF+ZtpKn2JqgPEOqGxS1M6eWkQhVhEgdYx/CHxux7ZpLzxHqs1sFa4VWDK7SRxqjyMv3SzAZbHvWj2M7O5V0/wAG6RdXkEj3k81j9re0mXy9reYELDHP3SAfyqrZ+GtP/smyvlu5ri3nnRJDEgPkgvtw/OVJ/Ks7U/FusG6inW4jje1lMsYit40XeeCzKBhiRwSc1CnirUZtPNqGtoY5HVn+z2sURfa25QSqgkA8gVloaWlc7a48LafbTXBtLifH29rSCER7mLA/Wtc+E4YoxK92ywrFJI3CswKEAj5SR3rkk8S6pdXEU0lwqyRzi4Uxwon7z+9wBk8V0Nj4uvIzMbny2BheOJI4I1RSxBJKgYOcd6uJEkyO80aMXVlDDMXgv0Ro3ZcEBm28j2IqODwbp7N5cepSljePYjMPWVRnPX7tQy6pd3V9HdTSDzY9vl7UCqgXoAo4AHpWWde1C3ZpFutu25a7B2LxIRgt09O3SpnY0p36Mn1HwnJZ2Il+3wQ3LQCYLI8e0gtjaFLbi2OemKy73wV9vvvs8etTT+VftYTeZHtCuImkBUZ6YQiuavvGGq3cfkyyQSKjfupXtY2ljXduCrIV3Bc84zUMfi3W4rhp474iRrwXpPlpzMAV3dPRiMdOelaxSSOacnKTbI77RhY6PpV+8xZdQDsVC/cCtt/Guwuvh/pt1qc5026ljs7W1t3k8xkVmeRARguwHqetcbq/iHUdcEC6hJEY7cFYY4YEiSME5IAQAdatp401pSN8ltKvkLAyTWcTrIi/d3gr8xHYnJFUQdFH8OLJbhLe41sGSaa4jhkgjEkbLENxbIPceneqZ8Fad9k/tH+1JhpxsPtisYR5hxKYiuM46jOawh4q1hZInS7CGFpXjCQoAhlGHwAuOR27dsVqeHfF1/aWk9h8twz2n2S1WSGN441MvmMGVhhgTnrnrSbSV2NJt2Rsy+C4YfD72sINy9xqFq8NwkQ83yZIGfGCeO2eccU1vAulafDqRvbuaXGlJfWpj2ttLTCM5KkgkHjg9/aq9/4v1HSkfyr4TXs0qzSkxIVDBNgG3GAApxt6Y7VhSeNNblumnkngbda/Y/K+yxCIQ7t2zZt24B5HGRUwnzq6KnDldjU8ReAxoOhPdvqETXMJi8yEyR5beP4QGLccZyB1p1j8PJ9R0I6laXW8PZ+fDHt5lkBbdGPcKhNYGo+I9R1WyS2vmgkCbf3oto1lfaMDdIF3NgepqTT/ABZrmlR2Uen6g8KWMrTW6hFIR2GGPI5yOMHIqyDs08FaXbM1tqVz5sUEF6Vlt4sMXiAySc8gHOPpVHU/DGl3ei2MtjcGC8i0RbxohCAsgEjAlj/eIx+Vc1beK9ZtGhMV2GEPmhVkiR1Ik++GBHzA9wc1E3iPVWOftIH+i/YwFiQAQ5J2AAcDJPvQM3vB/h6xuTpupavcMsNxqS2sMKx7/MYbS272+YD8a27fwZp7atbXD3nlPezXTxwLF8saQyMGOfoOBXF6P4r1fQbcw6bPGqeaJkEsEcvlyAY3rvB2tjjIo/4SnWPtFpOb1vNs2d4GCKNpdiz9uckng5qJRTVi4yadzrrjwzZa4/8AasGoyJpps55wzRfOPJZQy4z33gg1iaj4WeGSGTTbiOe2uLdbiNp5Y4W2nPGGYZOQeman0vx9e211dz3ixuW0+W0tooreNIoi7KxPlgbSCRzxzWFqWr3er3n2m/kDuFCKEQIqKOiqqgAAe1QoqKsjXmbd2dtZ+FLG10zV7N5ftGrLYwOqNENkTSSJja3rhsH61BF4DtLq/nsrTVGaa0uvsk5eLavmHIG3npuXHPrWHJ4y1qbTGsHuk8qSJYZGEEYkkRSCoZ9u44wMc0XnjDWr/wAvz7pQySrOXigSNpJF6O5UAuw9TmnoGpvx/DSULZPc3giFxHH5gC5MUrlcRn32uprH13w5badpYvtPvHuY0vJLKXzI9uHUA5HsQahk8Y69LJI76i7GS7F62UXBmHRsY+nHTjpS6fcXero9hd3Ba2M7XTIFAzKwALZxnoOnSonJRVy4pt2OvHha21CNljNrZRC004yStHypkVssD26c+tU38IaZZaZrhvHu0ls/I8h5EAXDtjdwSCDjqO1Z58Vano95LAZknTZEm2SJCCsYOwEY5wCfr3qnP4y1aee4cSQiK4iWJoDbxmMKpyoVNuBg8ggVEZczuXytaXLXi3RodKvbUWhkmjljAE4UeXLjjKEE5/nWvH8PldrMNetB50jxzCRVLRFYjJnapJHTGDg1yeo69f6r5AuniRIMmKOCFIlUk5J2oAMk960pfG+u3DK8l3GrKzPmO2jXczKVZmwvzEgkZNOyQe8aP/CJWX9nLqo1CX+zDbmUsYh5mQ+zbjOOveruo6ZYR/ErRrO3hQ2kkFkSuzAk3RqSSPU5ya5m08U6pYwRwwTo0EUbRLDLCkiFWO4gqwIPPPNJc69q11qsOtXFxvu49gSYRqNuwYXgDHAHpTug5ZM338H2eoyTXGl3r+SlxNDIrxbdrKhcbfUEAim6T4Y07+zZLrVJ5v3mktexCNfuES7Px/8Ar+1ZEvjTW3uIJhcxo0EjSKsVvGis7DDMyhQGJHBJB4qOTxlrMl0s7zwnbbNaiL7NGIxETkps27cZ56VWjIvI39Q8M6ShmuIru4isrSygmnJj3OzSYChRnucn2xT08E2cEP2i91GT7NJNDHCUiyzCVdwJGeMd65tPGOrxshEsDBYRbsr20bLLGCCFcFfnAwMZzjHFL/wleqXUbC4ut+6ZZiNigBlGFwAOABxgce1D2Ji3exs6x4QTTdIup2uDcy207wyLCoKxbW2/PzkZ6jjFcLdQiPDJ0Pb0rrZPGGqyK4aWAtLL5sr/AGWPdId27DHbkjdzg8VzOrTmaVpH275HLttUKMnngDgUoy10LnH3Xcz3OBSQuFnVj601jkUyuhrocl7anR282E45BFY7cufrUUV1LDwrce9SZzyaxp0+Rs2rVVUSCvQdU8IaO9yFtJGh2S7PLjYF3UsoDgMegBJLV59RWxzncWnhHSEmJuL83MfklkaMgLMxVjtTvkEDIp1v4O0cxyRy3cpaUQvHJkBkUswclD05X+veuFooA7i08CWtzpv2v7XKx2s4hj2szr5Zdcflg+hqnaaXodh/bDalJ9pis7qCONlOWZGEm/AB6/KBnkCuZt7qe18z7PK0fmI0b7T95TwRUNAHcX3hTSZ45LqwuJF8uNAbSIqzyNtiyVyefvkn/dNSTeDdHkktorW/ZxvEUksTKQ2ZWUydcBVABP1rg6KAO1bwVpsemT3jajK8cMYYSIF2TExh8ISexOOfQ1YHw9tFtFmlvpS2dsixbWEfzhSxP93Bzn2ri5r+5uLWO2llLQxnKpgAZxjJx1OOMmo47maK3lgjkZYpseYmeGwcigDuJ/B+j3120dhfeRIiwoFyCjsYBIzA5z2b8SKwtLtNOuLXU0fyj5UkSwTykggNJtJwDzgc1iW91Nas7W7lGdChYDnB6jPaosUAdu3gzRYmYSarNkO6YCqMbYnkzz1B2AD/AHhVux8DaVFqGmy3V28lrLcRFjLtWN1MsamMkHOSHPT0Nee1LJdTy28UEkrNFDny0J4XJycfjQB20PgrTI9Nlnu7wLLNGDGA4Kx5ZDv9wFY59MH0rm/Eek22j6ittaXDzjDbi64xhiB9QQAfxrIxRQAUUUUAFa9iubNOKyK2tO/480/Gkyo7k4j4pRHUwUYpdtIZDspwQCpQuaNlAEWz2pfLFS7aMUARbRS7PapcCjbQBFt9qXbUuKTbQBHso2VJtpcUAR7KUJ7U+l20AMxQBmn4pQKAG2Axd3X/AAD+Rq/VGx/4/Lr/AIB/I1eqiDz/AMQ/8hmT8f8A0I0UeIf+QzJ+P/oRoqkIzaKKKAL+nf8AHu3++f5CrdU9P/1Df7/9BVvNZvc0Wwv0pkjbVpxOKglagCJjk0DrSUVRBIKeKjWng1BqiSimg0pOKlmiFpC1ITmjbmkAAZoZqU/LUROTVCYDlqcfSgdKKYgRirYqY/MvFQkZpVbaalgmSRHY1LtMcvPQ9KM5ORTnO6Meo5oKsXB/qVPoa3NPfpWDC26A1q6fKCox2qdmXudFGOBVHVbIT27gdSOPrVqCTKippBviINaboy2ZxdmMYRuCrYIretR0rLuoPJ1gYHEhz+NaltkE5GKztqa30NJKZcECM0xHps/KVVyFuc1qRG+Ss22n2EbugNXNYfZOyd6zY138A8+lTFXRUnqdlY31iyqTLtPoTWpFdWrcLOv51wAhZRlnVR6saiFyEY/MT7iqV+hLs9z05WXy2YOpAHXNcVreq4jaCI/M/XHYVlHVJxGUjdgD71SZizEsck9TT5W9WS5qKaQlFFFaGAUUUUAFOjleJt0bFW6ZBptFAASWOWJJ7k0UUUAFFFFABRQAWIAGSegq9e6VcWFtFJcLt8zoKlySdmUotq6KNGaKKpkocD605TUdLmpaK5iYN6U7fUGfSlz60rGnMWA1WLO+kspxLCecYOe9UQ1KGqXFNWZanZ3Lk909zcPLKcsxyaaH9Krh6XfipUbKxXOWA1O3VXD5pd9Fh85PvFaWlzpIGtZujjgn1rG3GhZSjBlOCO4qZQurFRqcruWrlDBO8ec7TjNV2eia5Mo+fls9agZ/etIp21MZyV9B5emiZkbK1EW55pM5q7GXNroWTfN2HNQySNI2XOTUeaAeeacYpA5N7ik8U2nEUlMQgBJwOtWh0qtVkdBQSFdVqXgS8s5lW3uI5l3+W7yERhWyAOc9yeO/FcrWw3irWXk3tek5bcVKLgtkHcRjBPA568UAW7XwRqk07RXHlWxSIyPvcbkG0kZHbOP1pYfA2pyxzAyQJMhiCRmQfPvzg56dqz18S6uoUfbXJUYJYAlhgjDHuME8GnL4n1dAoS8ZVRQqqFGFAJYYGOuSTn3oAnh8HarPa/aUWHyBu3SNKAq7V3En8OR60238NTu9/FO4W4s2VTBGA7tkE7gM8qMDJGT8w4qWy8Z6taW7wSSieIwtEqSKMLlNgPTkgHHNZses6hFdy3SXB+0Snc0pUFgcEZB7HBPSgDVuvBGpQXTQwNDPhC6kSAFwEDtgHrgHn6VV1HwrqemWs9xdJH5cEhjcpIG5DbTjHXnio/8AhJtX24+2sPl2hgBuAwFODjPIAB9RUF1rWoX0Dw3Vy0iPI0pBA+8xyfzPOKANKPwnPexWjaU7Tm4gEx81QgQGRkAzk8krTj4H1kIrbLcllRggnXd8yBxx67SDWZBreo20axw3LKixeSFwCAu4tj/vok1PD4n1aK4ila7d/LKfKcYIRQgH/fIxQBfPgfUUsLi4laPfFKsSLGwdWbcVYFgeCuB+dOn8A6tEsIHlNKyu0qeYB5QVwnJ9yR+dVrjxlrMt5NNDdGBJXL+SgGwZJPTHuc+tQSeKtZmZmlvWcsGVtyg5BIJH0yAfqKAMuWNoZnikGHRirD0IplKSWYsxySck+tJQAUUUUAFFFFABW1p3/HqlYta+nti3QUDW5przT9tRI3FTA5WpLEAxS0UUAFFFJmgQtFJmjNACgUdqTNN3UAPopm6jdQBIKCaZuo3UAOo3UwtSZoGPsf8Aj8uv+AfyNX6z9P5urr/gH8jWhVGZ5/4h/wCQzJ+P/oRoo8Q/8hmT8f8A0I0VSEZtFFFAFyxOIW/3v6CrO6qlmf3Lf739KsZFZvc0Ww8txxUDnJqQ9KhPWmhMKKKKZIoqQGoqerVLLiySlFNBzSipZqh4WlpAeKM1JQx6YPenN1ptUQ9x1LTAcU4UwuLRRTkjeRgsaM7HoFGaAY1SV96eHzWlb6DO4DXLLAvfcefyqUjSbH7ubmQfiP8ACiwr9jOicxHa3APIrS09iZCFGazry6+0yblQIB0Apltey2su+M1LRaeh29oshjBxV+OMlfmwPrXFnxJdlcLha9T+GHgWz8c+G59Q1a9u1dZzGFhYKMAU0+hMl1OC8Sxww26zxzDzkYFRmsy38T7QPtEGT6ivfJfgD4YmOZLq/P8A21H+FM/4Z68Kf8/F9/38H+FPlJ5zxJPFFlu+aFgD7U6XxVZbT5cDMfcV7V/wz14U/wCe99/38H+FB/Z78K4/4+L7/v4P8KOUOc+br28a8unmYY3Hp6VV6HI4r6b/AOGefCn/AD8X/wD38H+FJ/wzx4U/5+L/AP7+D/CqSsQ5NnzKST1or6a/4Z48Kf8APxf/APfwf4Uf8M8eFP8An4v/APv4P8KZJ8y0V9Nf8M8eFP8An4v/APv4P8KP+GePCn/Pxf8A/fwf4UAfMtFfTX/DPHhT/n4v/wDv4P8ACj/hnjwp/wA/F/8A9/B/hQB8y0V9Nf8ADPHhT/n4v/8Av4P8KP8Ahnjwp/z8X/8A38H+FAHzLRX01/wzx4U/5+L/AP7+D/Cj/hnjwp/z8X//AH8H+FAHzLRX01/wzx4U/wCfi/8A+/g/wo/4Z48Kf8/F/wD9/B/hQB8y0V9Nf8M8eFP+fi//AO/g/wAK4f4r/CfRfBPhSHVNKnumla6WFllYEEFWOf8Ax2gDyrR1Q6rCZPuqc81e8TaqNQvFih5ih4z6msUMV5Xg102qxaDo2pSWEmnXNw8KoGl+07d5Kgk4xxyaydO9TnNOe0OU5iitv7d4d/6A9z/4F/8A1qPt3h3/AKA9z/4F/wD1q1MzEorb+3eHf+gPc/8AgX/9aj7d4d/6A9z/AOBf/wBagDEozW39u8O/9Ae5/wDAv/61H27w7/0B7n/wL/8ArUAYoPNLmtn7d4d/6A9z/wCBf/1qPt3h3/oD3P8A4F//AFqB3Zi7qUN61s/bvDv/AEB7n/wL/wDrUfbvDv8A0B7n/wAC/wD61Kw+ZmRvo31r/bvDv/QHuf8AwL/+tVfxBYw6drUlvab/ACTHFKgc5IDxq+M98bsUWDmYzTZY47jfKAygdDUV1KksrPEoQZ4AqqGI6cUAkVHIr3NHU93lHFjTCc0UVoYhS0lLQAneiijFABmlpKcBxQUN5NWh0qFVqagTCtW98M6xYTLFcWTb2JAWJlk6Yz90nHUVlV1lx4+urmRmlsYCrSCQje2dwYEYOcgZXpQIwrPRNSv2VbSylcurMp24BCgk8n6GnRaBq01vLPHYTMkRQN8uD82dvHU5welbH/Cd3rSNI9pAZJYxFKeQHUKyjjOBw3b+tEfju7jkDiyty4VAzlm3OULEMTnk4bH4CgDBGlagzKFspyWzgCM846/lU1loOp6i22ztGkb7QtsV3BSsjBioIJ44VuTxxXQad46SHTJbG70+MRNCwBiJBZzGUGeeAc5JFZ1r4wvrTUNTu4o4t+oR7CDnER6Bl9wCRz6mgChJoOqRSRrJZyDeAcjkKCcZOOnIPWo7zSL6x1Q6dcW7i580xKgH323beD3571vy/EHUZZZn8mJDK275MjblNhH0Iz+ZqrdeL7i41qHUUtIYpIJZZo13MwEjkndk+hIIHTigDMu9D1Oxu7m3ubKUSWrbZto3BDjP3hkdOc+lTW3hvU7lpQbdofKTe3nArxnHHHPJraXxy/8AYYimtxJqCsFExyFZRGyAkA8kBgOmMAVYvviK41e+l0yyT7NcTySr5xO4livJ544UcDigDkRpt6WCraTEldwwh5X1+lWrvw7qljMsNxaOJiWHlKNzDaFJPHGPmFasPjaWG/ub3+zrdri4ADuWbg7dvAzxn09hTpvHd1PC0MljAY3ZmcBmBLExNnOcjmEfmaAOdlsbqGJJZreSOOQ4V3UqpP1NWLnQ9RtHCyQbyYhL+5dZcIRnJ2k4/Gr2seLbvWrGW2uoIgJHifcueCgcDH13n8qfbeMr61jdYY41LRxqGUkFSikA/wDjx4oAy20fUlC7rC5G4gDMR5J6U/8AsLUvsrT/AGWQBZFi8sqd5JBIwPTANdJp/wAQ7iPXILm+t1+zi4WSQRkkgb42OATjP7sfnVeLx5PBEkCadbvBEwaMSMxYHczZznrlzQBhT6FqlvHA81jMFnh8+Mhc5TcVycdOQetUK6yf4gX8xlItoYmkUqGjJBX95I4/LzWH4CuUJJOT1NACVpWLYhUVm1ctXwgoGjXRsCplb3qlG9Tq+allpljJ9aN31qLfRu96RRIWpN1M3Um7igRJupC1RbqC3vQFiTfRvqLdSbyKAsTb6Tdmod9G+gLE27HSjfUO6kL0CRKXpN9R7qTdQUXdMObi5/4D/I1o1maUczXP/Af61p1Zk9zz/wAQ/wDIZk/H/wBCNFHiH/kMyfj/AOhGiqRJm0UUUAWbT/VN/vVPVe0/1Tf71T1m9y0OzTGFOzSHmgYyig0VRAUZxRRQA8PT8ioaXNTYtSJg1OJ4qFWp++k0aKVwIzTTSls9KTNAhKcDxTaUUCuWVt0ChpplQHoF+Y1fGsC3iEdlCqcYLkcmsgdadQPcnnvJ7k/vpWb2zx+VQim0tA9BwOetJigcUpGaRQmMV9Kfs+f8iHcf9fbfyFfNv1r6T/Z+48B3GP8An7b+Qpx3Inseq0UUVZiY0+sTQ39whjUwQTJExB+bLKGz+tQtr1xHbxzyQIUmiM0YRskKCuc/g2eK1Dptqb03RiBmYgkknGQMA46ZxxnrSR6VZReZtt1/eKUYHJAU9VAPQH0FAGK/iqXyLh7e18x4Ud9u/GRuUJz/ALQYn8KtWXiJb6+SGKIhWkMZJPKkR7jkevar66TYoHCW0aiRERsL1Vfuj8M01tGsTI0iwCORpfNLxMUJfGCcgjtxQBVj1phIktwiR2srSKrbuV2ZyT7fKarWXiOXU7a2NpHEs00jqyNJuC4G4cjuQR9DmtRtGsXaQtbqfNUqwOSCD97joM98de9LPpVpcymSaLLnqwYqTxjnB6c9KAKlxrbLpVndwR83TooVlLbdw9F5NU5PE0sd1fxeSrC1DY4YHgLz7g7u1bzWkLJEnlIFhIMagYCkdMVBLpNnNu8yBGLFmY9CSQAf5D8qAKVtrE82qx2bIozbpMzeU4+8XGOR8v3O/rRqGq3VjLfHZE0Vra/aB13Nndgf+OfrV6PS7aKdJkEgkRQgYzOSVBJAPPzYyeuetSTWME4lE0Ybzo/Kkz/EvPH6n86AMpvEBt7pYrqP5Wt/NDhSu58nCBW5yQpx9KhtvElzcXESfZODCskm0MdmVJ+9jGMjHrzWv/ZVodu+LzChUq0rFyCpyvJyeDUkNjbwKwiiVQyhSAOoHQUAZNz4kS2ttLlkVF+3BGYFwNgYDp68kClvNZu7SS6BSJkheNFKqxJ39Dgf0q/Fo9nFAYVizGY/K2u7N8n93knj2qSXTradXWSPO8qWIYqcjocjkYoAqW+qSNqxs51EXyBoyysPN+XJKk8ccgjrxnpWrVZLC3S4WbYWkUYBZi2OMZ5PXHGeuKs0AFeU/tEf8k2g/wCwjF/6BJXq1eU/tEf8k2g/7CMX/oElAHzHW54z/wCRuvvqn/oC1h1ueM/+Ruvvqn/oC0AYdS2sP2m8hgzt8x1TPpk4qKnI7RyK8ZKspBUjsaAN+Xw0kFjq1xJOW/s+7S1ADKu8sshzz/1z6DnmtBfAMqzWKzXDYuLOa4cBdux44zJ5eTxyNvPTmuffXtRkWZZJ0ZZnEkgMKYZxkBun3huPPXk01dc1NPO23so88sZOfvbkKN+akj6UAdXZfDj7fdCCDUAXF+LV0KfME43PjvtLAEfjWFofhmbXdLvZ7R91zbsix24HMu44wPcdaqx+JNYhuobiLUZ0mgbdG4bBU7duf++Riq9lqt9p2fsN1Jb5bd+7bHOCM/kTQB0d/wCC7bTr6KGXUTKlxLBDDJFHnLSRq+4+w3D3NSt4CEVrYvLeFXumRTgAjc0sibR3yBGWyeDXOR6/qsLbkvZAdqKCTnaEXauPQhRgEc4oj17VIvL2X0oEaCNBnOFDlwPwZifxNAEOpWyWeozW8ZLLG23JdWz+K8VVqS4uJLqdpptu9upRAoP4AAVHQAV1moiJvHMQnAKm0tQM+v2eOuTrb8WkjxFkHBFpa4P/AG7x1E4uUXFFRfLJMm8WWsMFxC8ICs4O4AVz1STTy3DBp5GkIGAWOcVHU0YOEFFsc5KUm0FFFFakBRRRQACn7c01Rk1ZSLK1LdjSMbkG2jGKmaPaahYfMaEwlGxJER3p9RxIXbAq6tkzDO79KTlGL1GoSmtCtRU8lq0fU/Sq7hk6impxewpU5R3FoqPzD6U0yn0/WqIsTUVD5p9P1o80+n60CJqKjjZpGCgda2IdH8xQTKQfTFROpGG5rClOp8KMuitdtDAUkTHOPSsSVmjkZGGCpwaUKkZ7BUozp/EiSiofNPp+tHmn0/WtDImoqHzT6frR5p9P1oAmoqHzT6frR5p9P1oAmoqHzT6frS+b7U7DsS1JC201W872p6Pk5osCNWKWrKSc1mRvVqN+lTIouh80u+q6tzT91SWibdSbh2qPJoyaB2HZxSFs0maaTigQ4tSZzTSc0lADs880ZFMoFAD91GcU3NHWgB26kJpOlFAF/SP9Zcf8B/rWpWXo/wDrLj/gP9a1Ksye55/4h/5DMn4/+hGijxD/AMhmT8f/AEI0VSJM2iiigCxaf6o/71T1DaD903+9VjFZvctbCYoxTxRigZGy8UypyuahYYNO4mJRRRTJCiiigAooooAMmjNFFKw7ig80uabRRYLkmaAaZuNKGpWKUiSlqPOaUNikUPophbIo30DuSBsV1Xhj4m+IvB2nSWWiXEKQSP5hWWEPg/WuPZyabTSJctLHpX/C+/HH/PzZ/wDgKtH/AAvvxx/z82f/AICrXmtFUZnpX/C+/HH/AD82f/gKtH/C+/HH/PzZ/wDgKtea0UAelf8AC+/HH/PzZ/8AgKtH/C+/HH/PzZ/+Aq15rRQB6V/wvvxx/wA/Nn/4CrR/wvvxx/z82f8A4CrXmtFAHpX/AAvvxx/z82f/AICrR/wvvxx/z82f/gKtea0UAelf8L78cf8APzZ/+Aq0f8L78cf8/Nn/AOAq15rRQB6V/wAL78cf8/Nn/wCAq0f8L78cf8/Nn/4CrXmtFAHpX/C+/HH/AD82f/gKtH/C+/HH/PzZ/wDgKtea0UAelf8AC+/HH/PzZ/8AgKtH/C+/HH/PzZ/+Aq15rRQB6V/wvvxx/wA/Nn/4CrWH4q+JviXxlpken63cQtbJKJQkUITLAEAk/ia5GigArffxbcTsHu9M0q5m2hWmltAXfAAyTnk4ArAooA3f+EoP/QD0X/wD/wDr0f8ACUH/AKAei/8AgH/9esKigDd/4Sg/9APRf/AP/wCvR/wlB/6Aei/+Af8A9esKigDoIvEMs27ytA0h9oydtlnA/Oox4nI/5gmi/wDgH/8AXqTwnqtpps9z9u+7JH8px39KwGILsVGATkVnGTcmmPSxuf8ACUH/AKAei/8AgH/9ej/hKD/0A9F/8A//AK9YVFaCN3/hKD/0A9F/8A//AK9H/CUH/oB6L/4B/wD16wqKAN3/AISg/wDQD0X/AMA//r1majqE+qX8l3dbPMcKCEUKqhVCgADoAAB+FVaKACiiigAooooAKBRRQA5etWUfFVVNPD1Elc1jKxYdtymodlPiDTMFUcmte30hmUFiAfSsZ1I09zeFOVXYqafbF+cd62VtsKBirFvZCFcKKn8v1ryq2LTloepRpRpxszKurZVhJPasiZQQcV01zDviI9qxTa9cV1YaopRuY4infYyCMDpUbcCtd7Xb1qjcQ5BPTFd8ZpnmzpOKKhooorU5ya2cJMhPQGuvs2VowVPBFcUDg1dtNVntQAuGX0Nc1ak5q6O3C11SdpHWsOCTXHag6yX8rJyC3WrFzrVxcoUGI1PBx1NZ1KhRlDWRWKxEaiUYhRRRXUcAUUUUAFFFGKpDFopKM0DHCnqcGo6UdaALUbVZjeqKNirEbVLA0EapV6VVjapwcioLRLnFFMpQaCh1IaKQ0CEpD1pTSUAFFFKKAEopaSgVwooooFc0NH+/cf8AAf61qVl6P9+4/wCA/wBa1KszZ5/4h/5DMn4/+hGijxD/AMhmT8f/AEI0VSEZtFFFAFuy/wBS3+9/QVZAqvYn9y3+9/QVa7Vm9zRbCYpaKKQBTHTI4p9FAFZhg80lSyLUVUiWFFFFMQUUUUAFFFFABRRRQAUUUUAFFFFABRRRQAUUUUAFFFFABRRRQAUUUUAFFFFABRRRQAUUUUAFFFFABRRRQAUUUUAFFFFABRRRQAUUUUAFFFFABRRRQAUUUUAFFFFABRRRQAUUUUAFFFFABRRRQAUUUq4JoGtWbOhQh5GdhkjpXSxR9K5/Rm8tvYiups4hNKqjvXhYttzse3RahRHR27t91SfoKHt3X7yEfhXSwQLDGAo7U9kDDBAP1qv7LbV3LU4njHfRHGzLhTWSCoYg+tdHr9utrmRBhSOlcNPelZTg0sNRlFyg+h2OtHkUjTkw2fpWVeMqqQO9MbUSFwBz61TklaU5Y16VOk09TjrYiLWgyiiiuo4AooooAKKKKACiiimAUUClpjEFLRRQAlFFFAhaM0lFAx6nmrEbVVFTIaTGXo296so1UYzzVtG4qGUixniimA06kWh2aTNJmkzQAuaKaT6UueKBC0U3NFADuaKbmjNArDs0maaTxQDkUCNPR/v3H/Af61qVlaN96f8A4D/WtWrMzz/xD/yGZPx/9CNFHiH/AJDMn4/+hGiqQjNooooAt2X+pb/e/oKtDrVWy/1Lf739BVsdKzZotgopp604dKQwooooENYZFQsKnPSo3FMCKijFFUQFFFFABRRRQAUUUUAFFFFABRRRQAUUUUAFFFFABRRRQAUUUUAFFFFABRRRQAUUUUAFFFFABRRRQAUUUUAFFFFABRRRQAUUUUAFFFFABRRRQAUUUUAFFFFABRRRQAUUUUAFFFFABRRRQAUUUUAFL06UlFAGtpk+3Aaus0i5AuF571wcEuxuK1rbUjGwIOMV5uJoOTvE9SjVi4cjPV0bcoIpa4ux8ZJAgS4QsB3FTXPjm3EZ+zxsW96641rxu07nC6TTsSeM7tYrHAPzE4ArziRizZrS1bVZdSuPMlPHYelZjUqUWrye7CctFFdBtFIKWugxAc1Yjiz2qBPvCr8LADms5uxtSinuMEI7iq0ybH9q0SQapXTZYVEZNs1qxio6FeiiitzkClpKKa2GLRSZoph0CiiigEFFFFAwooopCCpENR04GgC1G1Wo2qihqyjVDKRcVqdmoFY4qQGkWh+aTkim5pDQUP3Um6m5FJuoEyTdRuNR7qM8UCHg0bqZuo3UAOzSg03PFANAjW0X70//AAH+tatZOif8t/8AgP8AWtarM3uef+If+QzJ+P8A6EaKPEP/ACGZPx/9CNFUiTNooooAuWH+pb/e/pVrNVbE4hb/AHv6CrJ9aze5othD1pc0lFIodRRmgmgQhpCARRRTEROKZUzDNRMOeKaE0JRRRTJCiiigAooooAKKKKACiiigAooooAKKKKACiiigAooooAKKKKACiiigAooooAKKKKACiiigAooooAKKKKACiiigAooooAKKKKACiiigAooooAKKKKACiiigAooooAKKKKACiiigAooooAKKKKAAHFPEhplFK1xptDxIc8k07caiFPpWK5mK54qOnMeKbTRLCiiimIKkWUio6KTVxptbExnOKiZt3JpKKEkhuTYUUUUyQooooAKKKKACiiigAooooAKKKKbGFKKSikIlQ81OjVWU1KjUmUi4j1KGqsjVMpqS0SbqaTSE00nNAx+6kJ9KZRmgB4NLmo80oNArjiaWmUA4oFcfmlzTM0ZzTA2dD6T/APAf61r1kaD92b/gP9a16ozPP/EP/IZk/H/0I0UeIf8AkMyfj/6EaKpCM2iiigC3Zf6lv97+gq0DxVWy/wBS3+9/QVZrN7mi2A0YoopDuFFFFMAopM0ZoELTGFOpDQBERikp5FNIxTJYlFFFMQUUUUAFFFFABRRRQAUUUUAFFFFABRRRQAUUUUAFFFFABRRRQAUUUUAFFFFABRRRQAUUUUAFFFFABRRRQAUUUUAFFFFABRRRQAUUUUAFFFFABRRRQAUUUUAFFFFABRRRQAUUUUAFFFFABRRRQAU4Gm0ooAD7UlKTmkoAKKKKACiiigAooooAKKKKACiiigAooooAKKKKACiiigAooooAKKKKAFBxUqGogcU4HmgaLKNUwaqqGplNSUibdSU2igeo4tSUlFAC5ozSUUCHZoB9aSigB26jNJn2oJoA29A+5N/wH+tbFY+gf6ub/gP9a2Kog8/8Q/8AIZk/H/0I0UeIf+QzJ+P/AKEaKpCM2iiigC3Zf6lv97+gqxVazP7lv97+lWMis3uaLYWikyKZJMkQzI4X6mgCSiqwv7cnHmj8jUyuHXKEMPUGgB9FNyadQAUZoooAaetNIz9akpCKBERGKSpCM00rTuFhtFLikxRckKKMUUXHYKKKKYgooooAKKKKACiiigAooooAKKKKACiiigAooooAKKKKACiiigAooooAKKKKACiiigAooooAKKKKACiiigAooooAKKKKACiiigAooooAKKKKACiiigAooooAKKKKACiiigApaSigAopcUlABRRQOaAFwaNp9KlRM04rUcxryaXK54oqSUdKjqk7mbVmFFFFMQUUUUAFFFFABRRRQAUUUU7AFFFFIAooooAKUHmkoHWgCdKmWoFqVaTGiYdKKVRmnAUixmDRipKTFAhmKKftpMUAJQKdijHpQA2ilxxRigDb0D/Vzf8B/rWxWPoP3Zv8AgP8AWtiqIPP/ABD/AMhmT8f/AEI0UeIf+QzJ+P8A6EaKpCM2iiigCzaf6o/71TE4qvbf6s/71TVm9y1sQXl35CAJ99unt71kszOxZiST3NSXbl7pyexx+VemWV1pngL4W+HdbTw3pGt6n4hlu2eTV7fz0gSCQRhVTIAznOf58YYjgbzw1runabHqGoaLqNrZS7fLuZ7R0jfcMrhiMHI5HrVGCd4JN0Zx6jsa948SfE34mW3hG3vfFPgTQW0O62bBd2LyRnuu6Mynb043Ae1cF8RrLTLrwz4U8XaXplvpL69Dcrc2doNsKyQSBNyL/CGz09vqSAc9BKtxEJF79R6GpazNKkPmPH2IzWnSGFJzS0hOKAFopoPrSnpQAHFBXNHUUtADdtJsp9FAWGbKTbUlIaBkRGKSnmmGmSwooopiCiiigAooooAKKKKACiiigAooooAKKKKACiiigAooooAKKKKACiiigAooooAKKKKACiiigAooooAKKKKACiiigAooooAKKKKACiiigAooooAKKKKACiiigAooooAKKKKACiiigApR1pKKALC8U4VXWQqMdfrSmUkelZ8rubqasLM2WwO1R0UVa0Ri3dhRRRTEFFFFABRRRQAUUUUAFFFFNAFFFFIAooooAKBRRQBIpqdKrpVhKTGidKkxTEqUUihCPSkxT6XFAEeKNtPIpO9ADdtJinmigBu2jbTqKANfQuFm/wCA/wBa16yNC6T/APAf61r1RB5/4h/5DMn4/wDoRoo8Q/8AIZk/H/0I0VSEZtFFFAE9t/qz/vVLUNt/qz/vVNUjMe7QpdPnuc/nXZn4d3GqfDjQtf8ACdnqOr3k81zDqkNsnnC2dXHlAIi7hlDkk57dK5u7tvPUFfvr096j0zXda0CST+xtVv8ATHkwJPslw8JbHTO0jNIZ6z40+J3inxVouneBPEegr4euNQkgW5ur1Hi3r5gCyBGUbF3LknJ+6RXEfEnw3e+C9ctvDVxr51i1tIPOtwrtst/MJLKELEISVycdcg1zWqazqeuXS3Otajd6jOqCNZbudpWCgkhQWJOMknHuarQwvO+1Bn1PYUAW9LQ+Y79gMVqCoYIVghCL+J9TUopDHUmM0ZpAetAC45oPSjPFJ/DQAucCjNIelB7UDHUU3dRmgB1IRmkzRmgBtNJzTzTWoExtFFFUSFFFFABRRRQAUUUUAFFFFABRRRQAUUUUAFFFFABRRRQAUUUUAFFFFABRRRQAUUUUAFFFFABRRRQAUUUUAFFFFABRRRQAUUUUAFFFFABRRRQAUUUUAFFFFABRRRQAUUUUAFFFFABRRRQAUUUUAFFFFABRRRQAUUUUAFFFFABRRRQAUUUUAFFFFABRRRQAUd6KKAHrVhKrLViM0mNFlKmHSoEqYUihaUGkooADRSHpRQAtIaM+9FABRigUo4oA19D/AOW//Af61rVk6H/y3/4D/WtaqIPP/EP/ACGZPx/9CNFHiH/kMyfj/wChGiqQjNooooAmtv8AVn/eqaorb/Vn/eqapY0JTXiSUfOgb6ipMUoqSiAWVuDxGPzNTKqouFAA9AKWigBaXNNooAXNGaSigBc0UlFAC0UlLQAUUoooASiiigANNNPppFADKKDRVEhRRRQAUUUUAFFFFABRRRQAUUUUAFFFFABRRRQAUUUUAFFFFABRRRQAUUUUAFFFFABRRRQAUUUUAFFFFABRRRQAUUUUAFFFFABRRRQAUUUUAFFFFABRRRQAUUUUAFFFFABRRRQAUUUUAFFFFABRRRQAUUUUAFFFFABRRRQAUUUUAFFFFABRRRQAUUUUAFFFFADl61OhqBTUqUrjRaQ4qYGq6GpQaRQ/NJmm5pCaAHk0maZuo3UDH0u6mbvSjdQIkzzSiowaXPFAG1ofSf8A4D/WtesLSLqG2WXzn27sY4Jz1rS/tOz/AOe3/jp/wqiDivEP/IZk/H/0I0UmvsH1ZnU5VgSD7bjRVIRnUUUUAV5fv/hTKKKkYUUUUAFFFFABRRRQAUUUUAFFFFABRRRQAUUUUAFFFFABRRRQAUUUUAFFFFABRRRQAUUUUAFFFFABRRRQAUUUUAFFFFABRRRQAUUUUAFFFFABRRRQAUUUUAFFFFABRRRQAUUUUAFFFFABRRRQAUUUUAFFFFABRRRQAUUUUAFFFFABRRRQAUUUUAFFFFABRRRQAUUUUAFFFFABRRRQAUUUUAFFFFABRRRQAUUUUAFFFFABRRRQAUUUUAFFFFABRRRQAUUUUAFFFFABRRRQAUUUUAdLpP8AyC4f+Bf+hGrlFFAGNq//AB+r/wBcx/M0UUVSEf/Z;" vertex="1" parent="1">
                    <mxGeometry x="240" y="270" width="285.71" height="150" as="geometry"/>
                </mxCell>
            </root>
        </mxGraphModel>
    </diagram>
</mxfile>